<?xml version="1.0" standalone="no"?>
<!DOCTYPE svg PUBLIC "-//W3C//DTD SVG 20010904//EN"
 "http://www.w3.org/TR/2001/REC-SVG-20010904/DTD/svg10.dtd">
<svg version="1.0" xmlns="http://www.w3.org/2000/svg"
 width="1280.000000pt" height="904.000000pt" viewBox="0 0 1280.000000 904.000000"
 preserveAspectRatio="xMidYMid meet">

<g transform="translate(0.000000,904.000000) scale(0.100000,-0.100000)"
fill="#000000" stroke="none">
<path d="M0 4520 l0 -4520 6395 0 6395 0 0 4520 0 4520 -6395 0 -6395 0 0
-4520z m2180 4135 c0 -8 -9 -38 -20 -67 -11 -28 -18 -53 -16 -55 2 -2 20 28
40 67 l37 70 4178 0 4178 0 37 -60 c51 -82 141 -170 217 -209 l64 -34 -67 61
c-68 64 -124 139 -151 205 l-16 37 869 0 869 0 -24 -25 -25 -24 0 -591 0 -591
-37 6 c-21 4 -46 9 -55 12 -10 2 -18 2 -18 -1 0 -3 25 -13 55 -22 l55 -18 0
-3023 0 -3023 -37 -36 -38 -36 37 22 37 21 3 -466 c3 -397 5 -467 18 -475 8
-5 12 -11 9 -15 -3 -3 -342 -4 -753 -3 l-748 3 23 30 23 30 -35 -32 -35 -33
-4371 0 c-2404 0 -4373 3 -4375 8 -9 20 -102 85 -161 112 -81 36 -108 39 -48
5 52 -30 141 -103 141 -116 0 -5 -321 -9 -781 -9 -652 0 -780 2 -770 13 7 10
12 146 13 443 l3 428 43 -38 c54 -49 85 -102 113 -191 12 -39 27 -82 34 -96
23 -44 78 -90 143 -121 69 -33 93 -33 39 1 -47 29 -85 87 -109 166 -40 135
-106 221 -207 269 l-61 30 0 2850 0 2851 71 35 c95 46 164 98 222 168 47 57
67 97 25 50 -33 -35 -96 -82 -148 -108 -44 -22 -145 -60 -162 -60 -4 0 -8 351
-8 781 0 519 -3 787 -10 800 -11 19 2 19 840 19 746 0 850 -2 850 -15z"/>
<path d="M2090 8479 c-19 -17 -64 -44 -100 -61 -60 -29 -77 -32 -205 -38 -104
-5 -150 -12 -179 -25 -49 -23 -142 -109 -163 -149 l-15 -31 33 31 c59 54 101
67 249 75 216 11 281 45 409 212 19 25 11 21 -29 -14z"/>
<path d="M6192 7843 l3 -588 140 3 c228 5 333 37 477 144 129 96 211 220 246
371 9 43 20 77 24 77 4 0 6 -170 5 -377 l-2 -378 -447 -3 -448 -2 0 -85 0 -85
480 0 480 0 0 755 0 755 -480 0 -480 0 2 -587z m896 401 c1 -66 -2 -132 -7
-145 l-10 -24 0 27 c-1 14 -9 46 -20 70 -86 201 -360 213 -448 20 -22 -46 -25
-65 -21 -122 6 -84 36 -140 96 -180 69 -46 120 -48 261 -13 24 6 24 5 19 -58
-10 -121 -119 -297 -251 -407 -100 -82 -220 -122 -366 -122 l-91 0 0 540 0
540 418 -2 417 -3 3 -121z m-830 -1251 c2 -15 -2 -23 -11 -23 -8 0 -17 -9 -20
-21 -8 -31 -27 -13 -27 25 0 39 7 48 35 44 12 -2 21 -12 23 -25z m69 -23 l1
-44 -19 24 -19 25 0 -23 c0 -13 -4 -20 -10 -17 -5 3 -10 24 -10 46 0 38 2 40
28 37 25 -3 27 -7 29 -48z m41 8 c-3 -48 -23 -50 -23 -3 0 36 3 45 16 45 6 0
9 -19 7 -42z m35 30 c3 -10 8 -9 22 2 17 14 18 13 11 -10 -4 -14 -10 -35 -13
-47 -7 -31 -19 -29 -26 5 -3 15 -9 35 -12 45 -4 9 -3 17 3 17 6 0 12 -6 15
-12z m96 -19 c6 -18 11 -39 11 -48 -1 -13 -3 -12 -16 4 -14 19 -16 19 -28 3
-28 -38 -34 -18 -11 36 19 44 30 45 44 5z m36 22 c3 -5 1 -12 -5 -16 -5 -3
-10 1 -10 9 0 18 6 21 15 7z m60 -1 c3 -5 -2 -10 -12 -10 -17 -1 -17 -1 0 -14
9 -7 17 -20 17 -29 0 -19 -30 -31 -44 -17 -7 7 -5 10 7 10 22 0 22 9 0 25 -9
7 -14 19 -10 29 7 18 32 22 42 6z m69 -12 l7 -23 9 23 c5 12 12 22 15 22 3 0
10 -10 15 -22 l9 -23 7 23 c3 12 11 22 16 22 5 0 7 -8 4 -17 -15 -55 -18 -63
-25 -63 -4 0 -12 10 -18 23 l-10 22 -7 -22 c-4 -13 -11 -23 -16 -23 -8 0 -30
53 -30 71 0 18 18 8 24 -13z m116 -18 c0 -22 -4 -40 -10 -40 -5 0 -10 18 -10
40 0 22 5 40 10 40 6 0 10 -18 10 -40z m60 30 c0 -5 -7 -10 -16 -10 -12 0 -11
-5 7 -19 22 -18 23 -21 7 -37 -11 -11 -22 -14 -35 -9 -17 8 -17 8 0 12 21 6
22 12 0 28 -21 16 -10 45 17 45 11 0 20 -4 20 -10z m64 4 c9 -3 16 -13 16 -22
0 -12 4 -11 20 6 23 25 40 28 58 10 24 -24 8 -78 -24 -78 -7 0 -20 7 -29 17
-10 10 -19 12 -23 6 -4 -5 -19 -13 -34 -17 -27 -6 -28 -5 -28 39 0 46 8 53 44
39z m150 -19 c4 -14 10 -25 15 -25 5 0 12 11 15 25 4 14 11 25 16 25 14 0 24
-70 11 -83 -8 -8 -11 -7 -11 6 0 20 -16 23 -24 5 -3 -9 -9 -7 -20 6 -16 19
-16 19 -16 -4 0 -14 -4 -20 -9 -14 -10 11 -2 84 9 84 4 0 11 -11 14 -25z"/>
<path d="M6275 8218 c-3 -13 -4 -210 -3 -438 l3 -415 23 -3 22 -3 -2 438 c-3
404 -4 438 -20 441 -11 2 -19 -5 -23 -20z"/>
<path d="M6470 7800 c0 -433 0 -440 20 -440 20 0 20 7 20 440 0 433 0 440 -20
440 -20 0 -20 -7 -20 -440z"/>
<path d="M6340 7770 c0 -433 0 -440 20 -440 20 0 20 7 20 440 0 433 0 440 -20
440 -20 0 -20 -7 -20 -440z"/>
<path d="M6410 7771 c0 -383 2 -441 15 -441 8 0 17 10 20 23 3 12 4 209 3 437
-3 386 -4 415 -20 418 -17 3 -18 -23 -18 -437z"/>
<path d="M6880 6975 c0 -14 5 -25 10 -25 6 0 10 11 10 25 0 14 -4 25 -10 25
-5 0 -10 -11 -10 -25z"/>
<path d="M6960 6975 c0 -16 6 -25 15 -25 9 0 15 9 15 25 0 16 -6 25 -15 25 -9
0 -15 -9 -15 -25z"/>
<path d="M11008 8324 c17 -8 62 -19 100 -24 110 -17 287 -37 290 -34 12 10
-161 47 -276 59 -75 8 -139 15 -142 14 -3 0 10 -7 28 -15z"/>
<path d="M11485 8208 c44 -39 105 -120 105 -140 0 -4 -12 -8 -26 -8 -94 0
-184 -61 -184 -125 0 -21 9 -44 25 -64 27 -32 114 -76 169 -87 43 -8 102 19
120 55 28 55 28 76 5 171 -3 12 6 15 46 13 l50 -3 -40 19 c-22 11 -50 20 -61
20 -13 1 -32 17 -49 41 -31 45 -115 111 -170 134 l-38 16 48 -42z m135 -245
c0 -61 -29 -109 -77 -129 -31 -14 -38 -14 -50 -1 -19 19 -21 79 -3 111 14 26
82 66 113 66 14 0 17 -9 17 -47z"/>
<path d="M1387 8123 c-13 -21 -27 -48 -31 -61 -5 -14 -28 -32 -64 -50 -64 -31
-156 -111 -179 -156 l-16 -31 39 34 c39 35 158 95 175 89 6 -2 11 -37 13 -78
1 -41 10 -92 19 -112 21 -49 71 -81 116 -74 49 7 74 28 127 102 39 55 48 76
52 120 4 42 0 58 -17 82 -31 44 -99 74 -163 72 -29 -1 -56 -1 -60 -1 -4 1 -1
22 7 48 8 26 13 49 10 51 -2 2 -14 -13 -28 -35z m109 -179 c42 -20 70 -58 79
-106 6 -30 4 -38 -13 -47 -76 -41 -171 35 -172 137 0 30 2 32 36 32 20 0 51
-7 70 -16z"/>
<path d="M11849 7984 c48 -40 78 -101 100 -203 23 -103 49 -156 108 -215 34
-34 127 -96 145 -96 4 0 -18 25 -48 54 -61 62 -89 117 -111 226 -19 92 -40
134 -90 181 -33 32 -110 79 -128 79 -4 0 7 -12 24 -26z"/>
<path d="M1026 7720 c-40 -75 -163 -436 -138 -404 27 35 80 158 105 244 14 47
36 116 50 155 15 38 25 71 23 72 -2 2 -20 -28 -40 -67z"/>
<path d="M11611 7155 c-18 -25 -38 -45 -45 -45 -6 0 -29 12 -51 25 -22 14 -43
25 -47 25 -4 0 -13 -27 -20 -60 l-12 -60 -64 6 -63 7 7 -39 c16 -80 14 -85
-41 -104 -27 -10 -49 -23 -47 -29 1 -7 14 -30 28 -53 l26 -40 -43 -44 c-24
-24 -41 -45 -38 -46 2 -2 18 -13 36 -26 18 -12 37 -22 42 -22 21 0 21 -21 1
-62 -11 -23 -20 -47 -20 -54 0 -7 23 -15 60 -19 l60 -7 0 -63 c0 -60 1 -62 23
-58 l23 5 -8 -94 c-4 -51 -12 -120 -18 -154 -5 -33 -10 -79 -10 -101 0 -22 -2
-42 -6 -45 -6 -7 -80 21 -150 56 -50 25 -118 38 -84 16 12 -8 11 -10 -6 -10
-12 0 -25 -9 -30 -19 -5 -10 -34 -47 -64 -81 -30 -35 -60 -70 -66 -78 -10 -14
-18 -12 -61 16 -58 37 -88 68 -101 102 -6 16 -18 26 -32 27 -15 1 -20 -2 -16
-12 7 -19 -6 -26 -24 -14 -13 8 -12 12 4 24 11 8 31 15 45 15 31 1 67 25 51
35 -15 9 -3 25 19 25 23 0 46 26 31 35 -5 3 -10 0 -10 -7 0 -10 -2 -11 -8 0
-5 7 -16 10 -27 6 -11 -5 -22 -2 -29 8 -6 8 -26 22 -43 32 -26 13 -33 23 -33
46 0 23 5 30 19 30 28 0 35 17 11 25 -41 13 -12 38 32 28 12 -3 35 -17 50 -31
25 -23 28 -24 34 -8 8 22 0 28 -77 52 -51 17 -59 22 -59 44 0 33 13 52 33 48
9 -2 16 2 17 7 0 6 -12 12 -27 13 -39 5 -52 19 -48 50 1 15 3 42 4 60 0 17 5
32 9 32 9 0 80 -107 100 -150 11 -24 12 -23 6 8 -3 17 -2 32 3 32 4 0 9 11 9
25 2 24 -11 30 -52 24 -10 -1 -24 24 -24 41 1 11 4 10 15 -4 13 -18 15 -18 15
-3 0 15 4 16 20 7 11 -6 24 -8 29 -6 13 8 20 -16 14 -48 -4 -22 -2 -27 8 -24
10 3 15 25 17 71 2 54 7 69 22 77 24 13 26 30 5 30 -8 0 -15 4 -15 9 0 6 -21
16 -47 24 l-48 14 28 12 c16 6 38 11 50 11 28 -1 61 -25 52 -39 -3 -7 0 -8 10
-5 10 4 14 2 10 -8 -3 -8 2 -21 11 -29 15 -12 16 -12 10 9 -6 16 -3 22 8 22 9
0 16 4 16 10 0 12 -103 90 -118 90 -7 0 -12 4 -12 9 0 5 -17 12 -37 16 -32 6
-35 9 -18 15 13 5 -2 7 -38 7 -65 -1 -79 10 -70 54 3 15 0 30 -6 33 -7 4 -11
-1 -11 -13 0 -33 -30 -26 -31 7 -1 27 -1 27 -8 2 -5 -19 -17 -27 -56 -36 -41
-9 -44 -12 -20 -13 45 -2 76 -12 69 -23 -3 -5 -10 -5 -17 0 -7 5 -47 5 -98 -1
-70 -7 -86 -12 -85 -26 1 -11 -7 -16 -28 -16 -39 -1 -56 -27 -33 -53 19 -20
22 -48 8 -57 -6 -3 -8 -31 -5 -63 4 -53 4 -56 -11 -38 -14 18 -15 18 -15 2 0
-9 -4 -15 -8 -12 -4 2 -9 -4 -9 -15 -1 -10 2 -19 8 -19 5 0 9 -7 9 -15 0 -8
-6 -12 -14 -9 -10 4 -13 0 -9 -14 3 -12 13 -19 26 -18 47 3 79 -94 35 -102
-15 -3 -18 5 -20 45 -1 37 -2 40 -5 15 -3 -19 -9 -30 -15 -26 -7 4 -7 0 0 -12
16 -30 20 -243 5 -237 -7 3 -13 13 -13 22 0 9 -3 27 -6 41 -5 20 -3 22 5 10
11 -15 8 33 -5 99 -3 14 0 28 8 33 9 6 6 7 -8 3 -30 -8 -54 4 -54 26 0 10 -4
19 -10 19 -5 0 -10 -9 -10 -20 0 -17 -7 -20 -45 -20 l-45 0 0 -95 c0 -69 3
-95 13 -95 25 0 87 -21 87 -30 0 -5 -10 -12 -22 -16 l-23 -8 25 -7 c20 -6 16
-8 -17 -6 -24 1 -48 -4 -54 -10 -10 -10 -29 -76 -33 -115 -1 -10 -30 -43 -64
-74 -60 -54 -97 -105 -86 -117 3 -3 -4 -11 -16 -17 -12 -6 -20 -14 -17 -16 3
-3 -6 -17 -19 -31 -17 -18 -21 -29 -13 -33 8 -6 8 -9 0 -14 -6 -4 -11 -15 -11
-24 0 -9 -7 -30 -15 -46 -8 -15 -15 -35 -15 -42 0 -8 -10 -24 -22 -36 -43 -41
-58 -72 -58 -118 0 -27 -9 -62 -21 -85 l-20 -40 3 53 c2 28 0 52 -4 52 -18 0
-41 -93 -35 -146 5 -49 50 -151 87 -197 5 -7 31 -39 57 -72 66 -83 153 -165
169 -158 8 3 14 -1 14 -10 0 -24 72 -80 183 -141 l102 -56 489 0 489 0 61 31
c160 81 180 103 166 192 -8 53 -7 54 59 73 l46 14 -74 -6 c-63 -5 -73 -3 -68
10 4 10 -1 16 -15 18 -39 6 -29 23 19 36 27 7 77 17 113 22 91 14 88 11 80 72
-8 57 -6 72 5 39 3 -12 15 -26 26 -31 10 -6 19 -17 19 -25 0 -19 33 -75 43
-72 5 1 16 15 25 30 16 27 16 29 -2 42 -11 8 -16 20 -12 30 3 9 2 23 -3 33 -5
9 -14 31 -20 47 -12 31 -85 115 -115 132 -11 6 -31 70 -65 208 -58 234 -93
334 -128 366 l-26 24 6 -22 c7 -30 -3 -28 -30 6 l-22 28 101 94 c56 52 106 95
112 96 6 2 71 -51 145 -117 74 -66 136 -119 138 -117 3 3 -38 386 -52 480 -5
35 -4 38 15 32 19 -6 20 -2 20 58 l0 65 60 7 c33 4 60 11 60 16 0 6 -6 22 -14
37 -32 63 -30 68 26 102 l52 32 -42 40 c-23 21 -42 42 -42 47 0 4 13 28 29 52
16 24 28 46 25 50 -2 4 -27 13 -55 20 l-51 13 6 48 c4 27 10 56 13 65 6 14 -1
16 -59 10 l-65 -6 -13 59 c-7 33 -15 60 -18 60 -2 0 -26 -12 -53 -27 -48 -26
-49 -26 -70 -7 -11 10 -28 31 -37 46 -9 16 -19 28 -22 28 -3 0 -20 -21 -39
-45z m72 -45 c16 -22 33 -40 38 -40 5 0 27 11 49 25 l40 25 10 -25 c6 -15 10
-34 10 -43 0 -36 15 -43 70 -36 l53 7 -7 -39 c-4 -21 -9 -47 -12 -56 -4 -13 7
-21 50 -34 l55 -17 -29 -41 c-17 -22 -30 -46 -30 -52 0 -7 16 -25 35 -40 19
-14 35 -30 35 -33 0 -4 -19 -18 -42 -31 -24 -13 -45 -24 -46 -26 -2 -1 6 -24
17 -50 25 -56 19 -64 -46 -64 l-43 0 0 -56 c0 -56 0 -56 -27 -50 -90 20 -86
21 -106 -28 -11 -25 -22 -46 -25 -46 -4 0 -21 14 -39 30 -40 37 -52 37 -88 0
-16 -16 -32 -30 -36 -30 -5 0 -17 21 -29 46 -22 51 -12 48 -107 27 -20 -5 -22
-1 -25 48 l-3 54 -47 5 c-26 3 -50 8 -53 11 -3 4 4 27 15 53 l20 47 -45 27
c-25 15 -45 30 -45 34 0 4 16 19 35 34 19 14 35 31 35 36 0 5 -13 29 -29 52
l-30 43 54 17 53 16 -9 38 c-17 73 -16 75 45 68 l54 -7 13 55 12 56 43 -25
c23 -14 47 -25 52 -25 5 0 22 18 37 40 15 22 30 40 34 40 3 0 19 -18 34 -40z
m-963 -280 c0 -5 -6 -10 -14 -10 -8 0 -18 5 -21 10 -3 6 3 10 14 10 12 0 21
-4 21 -10z m155 -190 c3 -5 1 -10 -4 -10 -6 0 -11 5 -11 10 0 6 2 10 4 10 3 0
8 -4 11 -10z m-315 -72 c0 -4 -11 -8 -25 -8 -14 0 -28 0 -32 -1 -4 0 -9 5 -11
11 -3 7 9 10 32 8 20 -1 36 -6 36 -10z m135 -28 c-3 -5 -10 -10 -16 -10 -5 0
-9 5 -9 10 0 6 7 10 16 10 8 0 12 -4 9 -10z m-68 -6 c-3 -3 -12 -4 -19 -1 -8
3 -5 6 6 6 11 1 17 -2 13 -5z m-398 -271 l-2 -78 -10 62 c-9 56 -6 93 8 93 3
0 4 -35 4 -77z m229 24 c-1 -12 1 -28 6 -35 5 -8 4 -18 -2 -24 -17 -17 -47 7
-49 39 l-2 28 14 -25 c14 -25 14 -25 15 13 0 24 4 36 11 32 5 -4 9 -17 7 -28z
m37 -16 c3 -5 1 -12 -5 -16 -5 -3 -10 1 -10 9 0 18 6 21 15 7z m25 -81 c0 -5
-5 -10 -11 -10 -5 0 -7 5 -4 10 3 6 8 10 11 10 2 0 4 -4 4 -10z m10 -35 c0
-18 -52 -75 -69 -75 -20 0 -12 20 25 55 40 39 44 41 44 20z m-34 -102 c-10
-10 -19 5 -10 18 6 11 8 11 12 0 2 -7 1 -15 -2 -18z m-1 -45 c0 -19 -5 -21
-30 -12 -24 10 -18 36 8 32 13 -2 22 -10 22 -20z m843 -15 c24 -8 42 -19 40
-25 -4 -11 -10 -11 -61 3 -21 5 -47 19 -58 30 -19 19 -19 19 8 14 16 -4 47
-13 71 -22z m-1128 -4 c-7 -11 -14 -18 -17 -15 -3 3 0 12 7 21 18 21 23 19 10
-6z m517 -21 c-3 -7 -5 -2 -5 12 0 14 2 19 5 13 2 -7 2 -19 0 -25z m726 -120
c15 -10 -10 -29 -33 -25 -17 3 -21 45 -6 65 8 11 12 9 18 -9 5 -13 14 -27 21
-31z m-1098 -48 c-3 -5 -10 -10 -16 -10 -5 0 -9 5 -9 10 0 6 7 10 16 10 8 0
12 -4 9 -10z m1075 -4 c0 -3 -4 -8 -10 -11 -5 -3 -10 -1 -10 4 0 6 5 11 10 11
6 0 10 -2 10 -4z m-1271 -787 c-23 -14 -27 0 -10 34 l16 34 3 -30 c2 -17 -2
-33 -9 -38z m1692 28 c-10 -9 -11 -8 -5 6 3 10 9 15 12 12 3 -3 0 -11 -7 -18z"/>
<path d="M11568 7027 c-262 -74 -291 -420 -45 -549 57 -30 182 -31 247 -1 185
84 229 333 85 475 -72 71 -189 102 -287 75z m159 -32 c67 -20 134 -80 163
-147 31 -71 25 -174 -12 -233 -72 -113 -201 -160 -318 -116 -182 69 -235 300
-98 431 78 74 163 95 265 65z"/>
<path d="M11580 6981 c-117 -38 -189 -142 -177 -255 9 -89 55 -158 132 -199
62 -33 175 -31 236 5 81 48 119 116 119 214 0 96 -49 177 -135 221 -34 18
-138 26 -175 14z m155 -40 c43 -19 100 -78 116 -118 16 -42 11 -131 -10 -171
-53 -103 -176 -149 -276 -103 -170 78 -179 298 -16 383 63 33 127 36 186 9z"/>
<path d="M10966 6966 c23 -29 29 -32 41 -20 12 12 12 17 -1 36 -13 18 -16 19
-16 5 0 -9 -4 -17 -10 -17 -5 0 -10 7 -10 15 0 8 -7 15 -15 15 -12 0 -9 -8 11
-34z"/>
<path d="M10631 6964 c0 -11 3 -14 6 -6 3 7 2 16 -1 19 -3 4 -6 -2 -5 -13z"/>
<path d="M10589 6945 c-2 -17 -9 -29 -16 -27 -7 1 -13 -5 -13 -13 0 -8 -4 -15
-10 -15 -5 0 -10 -4 -10 -9 0 -4 11 -6 25 -3 27 5 40 33 33 73 -4 21 -5 21 -9
-6z"/>
<path d="M6631 6886 c-7 -9 -11 -38 -9 -73 3 -57 4 -58 34 -61 34 -3 60 18 50
43 -6 18 -36 9 -36 -11 0 -8 -4 -14 -10 -14 -5 0 -10 23 -10 50 0 28 5 50 10
50 6 0 10 -9 10 -20 0 -24 28 -27 37 -5 7 19 -24 55 -47 55 -10 0 -23 -6 -29
-14z"/>
<path d="M6970 6880 c-13 -13 -20 -33 -20 -58 0 -51 18 -75 55 -70 29 3 30 5
33 63 3 47 0 62 -14 72 -24 17 -31 16 -54 -7z m27 -87 c-2 -16 -4 -3 -4 27 0
30 2 43 4 28 2 -16 2 -40 0 -55z"/>
<path d="M6197 6833 c1 -32 2 -64 2 -70 1 -7 8 -13 16 -13 10 0 15 10 15 30 0
20 5 30 15 30 21 0 34 31 24 58 -6 17 -16 22 -41 22 l-33 0 2 -57z m40 5 c-3
-7 -5 -2 -5 12 0 14 2 19 5 13 2 -7 2 -19 0 -25z"/>
<path d="M6292 6823 l3 -68 35 0 35 0 3 68 c2 55 0 67 -13 67 -12 0 -15 -13
-15 -60 0 -33 -4 -60 -10 -60 -6 0 -10 27 -10 60 0 47 -3 60 -15 60 -13 0 -15
-12 -13 -67z"/>
<path d="M6390 6819 l0 -70 43 3 c35 3 43 7 45 26 2 13 -1 29 -7 35 -6 8 -6
18 -1 27 15 25 -7 50 -45 50 l-35 0 0 -71z m47 29 c-3 -8 -6 -5 -6 6 -1 11 2
17 5 13 3 -3 4 -12 1 -19z m0 -70 c-3 -7 -5 -2 -5 12 0 14 2 19 5 13 2 -7 2
-19 0 -25z"/>
<path d="M6490 6820 l0 -70 30 0 c29 0 40 13 20 25 -5 3 -10 31 -10 61 0 47
-2 54 -20 54 -18 0 -20 -7 -20 -70z"/>
<path d="M6570 6820 c0 -56 3 -70 15 -70 12 0 15 14 15 70 0 56 -3 70 -15 70
-12 0 -15 -14 -15 -70z"/>
<path d="M6726 6853 c-10 -65 -7 -103 8 -103 8 0 17 6 20 13 5 10 7 10 12 0 3
-7 13 -13 23 -13 15 0 16 6 10 53 -4 28 -8 60 -8 70 -1 12 -9 17 -30 17 -25 0
-29 -4 -35 -37z m44 -43 c0 -5 -4 -10 -10 -10 -5 0 -10 5 -10 10 0 6 5 10 10
10 6 0 10 -4 10 -10z"/>
<path d="M6810 6880 c0 -5 5 -10 10 -10 6 0 10 -27 10 -60 0 -53 2 -60 20 -60
18 0 20 7 20 60 0 33 4 60 10 60 6 0 10 5 10 10 0 6 -18 10 -40 10 -22 0 -40
-4 -40 -10z"/>
<path d="M6900 6820 c0 -63 2 -70 20 -70 18 0 20 7 20 70 0 63 -2 70 -20 70
-18 0 -20 -7 -20 -70z"/>
<path d="M7060 6820 c0 -56 3 -70 15 -70 9 0 15 10 16 28 l1 27 7 -25 c4 -14
15 -26 24 -28 15 -3 17 6 17 67 0 56 -3 71 -15 71 -10 0 -15 -10 -16 -27 l-1
-28 -10 28 c-5 15 -16 27 -24 27 -11 0 -14 -16 -14 -70z"/>
<path d="M10458 6873 c7 -3 16 -2 19 1 4 3 -2 6 -13 5 -11 0 -14 -3 -6 -6z"/>
<path d="M10750 6865 c-10 -13 -9 -15 8 -15 15 0 20 5 16 15 -4 8 -7 15 -9 15
-1 0 -8 -7 -15 -15z"/>
<path d="M10288 6838 c-7 -51 3 -262 12 -248 7 11 10 0 11 -35 0 -27 3 -44 6
-36 8 20 -8 341 -17 341 -5 0 -10 -10 -12 -22z"/>
<path d="M10431 6849 c-30 -5 -57 -12 -60 -15 -12 -11 23 -21 48 -13 14 5 38
11 54 14 15 3 27 10 27 15 0 6 -3 9 -7 9 -5 -1 -32 -5 -62 -10z"/>
<path d="M10430 6806 c0 -2 7 -7 16 -10 8 -3 12 -2 9 4 -6 10 -25 14 -25 6z"/>
<path d="M10380 6655 c0 -8 4 -15 10 -15 5 0 7 7 4 15 -4 8 -8 15 -10 15 -2 0
-4 -7 -4 -15z"/>
<path d="M5220 6265 l0 -236 33 3 32 3 0 230 0 230 -32 3 -33 3 0 -236z"/>
<path d="M5340 6265 l0 -235 30 0 29 0 3 138 3 137 23 -85 c56 -202 50 -190
83 -190 l29 0 0 235 0 235 -30 0 -30 0 0 -132 c0 -73 -4 -128 -8 -122 -5 5
-21 56 -36 114 -16 58 -30 113 -33 123 -3 11 -14 17 -34 17 l-29 0 0 -235z"/>
<path d="M5632 6488 c-28 -14 -47 -74 -38 -121 4 -19 30 -70 58 -113 40 -60
52 -88 52 -119 1 -36 -1 -40 -23 -40 -19 0 -27 7 -33 33 -7 27 -13 32 -40 32
-30 0 -31 0 -24 -42 8 -57 43 -88 97 -88 59 0 89 34 89 100 0 57 -3 65 -66
162 -34 51 -44 77 -44 107 0 34 3 41 19 41 13 0 21 -9 26 -30 5 -25 11 -30 36
-30 24 0 29 4 29 25 0 33 -25 81 -45 89 -24 9 -67 6 -93 -6z"/>
<path d="M5816 6478 c-3 -13 -4 -117 -3 -233 l2 -210 33 -3 32 -3 0 95 c0 80
3 96 15 96 29 0 75 30 90 60 19 37 19 123 0 160 -20 38 -63 60 -119 60 -39 0
-46 -3 -50 -22z m118 -91 c12 -49 -2 -91 -32 -95 -21 -3 -22 0 -22 68 0 68 1
71 23 68 16 -2 24 -13 31 -41z"/>
<path d="M6040 6265 l0 -235 35 0 35 0 0 235 0 235 -35 0 -35 0 0 -235z"/>
<path d="M6160 6265 l0 -235 35 0 35 0 0 100 c0 55 4 100 9 100 10 0 31 -77
31 -113 0 -13 5 -38 11 -56 9 -25 16 -31 41 -31 26 0 29 3 25 23 -3 12 -13 62
-22 111 -16 85 -16 92 0 119 23 39 24 122 2 163 -19 36 -59 54 -123 54 l-44 0
0 -235z m108 153 c15 -15 16 -82 2 -109 -6 -10 -17 -19 -25 -19 -12 0 -15 15
-15 70 0 71 10 86 38 58z"/>
<path d="M6423 6476 l-28 -24 0 -185 c0 -182 0 -186 24 -211 34 -36 90 -36
126 -1 25 26 25 27 25 201 0 177 -5 205 -39 231 -27 21 -77 15 -108 -11z m81
-58 c9 -36 7 -301 -3 -317 -5 -8 -16 -11 -25 -8 -14 6 -16 29 -16 170 0 90 3
167 7 170 13 14 31 6 37 -15z"/>
<path d="M6742 6283 c-18 -120 -32 -226 -32 -235 0 -13 8 -18 29 -18 27 0 30
3 36 50 7 48 8 50 40 50 35 0 45 -16 45 -72 0 -25 4 -28 31 -28 l32 0 -6 53
c-9 80 -56 390 -62 405 -2 6 -21 12 -42 12 l-38 0 -33 -217z m88 -2 c11 -81 9
-91 -21 -84 -22 6 -21 -1 -3 124 3 22 8 39 10 37 2 -3 8 -37 14 -77z"/>
<path d="M6950 6478 c0 -24 47 -385 56 -425 3 -16 12 -23 28 -23 23 0 25 5 42
120 10 67 21 115 24 108 4 -7 13 -56 20 -108 15 -116 17 -120 45 -120 20 0 23
7 34 93 7 50 18 137 26 192 27 198 27 185 -5 185 -26 0 -29 -3 -35 -52 -14
-120 -28 -209 -30 -206 -2 2 -8 46 -14 98 -19 155 -20 161 -45 158 -19 -3 -22
-13 -34 -108 -21 -165 -24 -167 -41 -25 -16 130 -16 130 -44 133 -22 3 -27 0
-27 -20z"/>
<path d="M7331 6428 c-11 -71 -21 -130 -41 -260 -5 -35 -12 -80 -15 -100 -6
-37 -5 -38 24 -38 32 0 36 8 43 70 3 21 8 25 38 25 34 0 35 -2 43 -47 8 -44
11 -48 38 -48 16 0 29 3 29 8 0 13 -60 417 -65 440 -4 18 -12 22 -44 22 l-38
0 -12 -72z m73 -230 c-2 -3 -13 -4 -25 -1 -20 5 -21 10 -14 72 4 36 10 71 13
76 7 11 32 -135 26 -147z"/>
<path d="M7530 6265 l0 -235 35 0 35 0 0 100 c0 55 4 100 8 100 5 0 16 -41 25
-92 9 -50 21 -96 26 -101 5 -5 20 -7 33 -5 l24 3 -20 108 c-18 101 -18 110 -3
143 21 44 22 116 1 159 -18 38 -55 55 -120 55 l-44 0 0 -235z m110 146 c23
-44 4 -121 -31 -121 -5 0 -9 32 -9 70 0 55 3 70 15 70 8 0 19 -9 25 -19z"/>
<path d="M7760 6266 l0 -236 48 0 c65 0 114 26 129 70 15 43 17 271 3 321 -15
55 -41 72 -116 77 l-64 4 0 -236z m114 148 c3 -9 6 -76 6 -149 0 -147 -3 -165
-31 -165 -18 0 -19 10 -19 165 0 155 1 165 19 165 10 0 22 -7 25 -16z"/>
<path d="M8030 6480 c-49 -49 -39 -121 31 -230 37 -59 53 -93 53 -117 0 -61
-49 -67 -60 -7 -5 29 -10 34 -35 34 -26 0 -29 -3 -29 -33 0 -31 21 -73 44 -89
6 -4 29 -8 52 -8 49 0 80 26 90 74 9 52 -1 83 -61 181 -56 90 -67 133 -41 154
11 10 17 7 30 -11 9 -12 16 -28 16 -35 0 -8 13 -13 31 -13 31 0 31 1 26 38
-12 72 -100 109 -147 62z"/>
<path d="M1218 6434 c-49 -41 -92 -111 -86 -141 5 -28 55 -29 84 -2 29 27 56
107 52 150 l-3 32 -47 -39z"/>
<path d="M2535 6423 c19 -110 51 -163 98 -163 43 0 52 23 27 75 -20 42 -101
125 -122 125 -5 0 -6 -17 -3 -37z"/>
<path d="M11060 6439 c0 -5 5 -7 10 -4 6 3 10 8 10 11 0 2 -4 4 -10 4 -5 0
-10 -5 -10 -11z"/>
<path d="M11310 6418 c0 -5 11 -8 24 -8 14 0 27 3 29 8 3 4 -8 7 -24 7 -16 0
-29 -3 -29 -7z"/>
<path d="M927 6269 c10 -17 37 -49 61 -71 38 -35 49 -39 83 -36 21 2 39 1 39
-3 0 -8 -21 -122 -26 -136 -2 -9 -14 -7 -39 9 -25 14 -60 22 -108 26 l-72 5
25 -29 c63 -71 114 -99 161 -89 28 6 29 5 29 -33 0 -21 3 -60 6 -86 l7 -46
-33 16 c-25 13 -49 15 -103 11 -38 -3 -74 -10 -79 -15 -13 -13 88 -73 135 -80
22 -3 48 1 63 8 13 7 25 11 27 9 1 -2 12 -31 23 -64 12 -33 24 -67 28 -75 5
-12 -4 -15 -51 -16 -62 0 -164 -37 -147 -53 5 -5 30 -16 56 -26 58 -22 120
-16 153 15 17 16 24 18 28 8 2 -8 28 -44 55 -80 l51 -66 -40 0 c-40 -1 -139
-42 -159 -68 -16 -18 25 -29 107 -29 51 0 66 4 87 24 14 14 26 31 26 38 0 10
6 9 28 -4 23 -15 25 -16 14 -1 -11 14 -10 17 7 23 32 10 61 83 61 153 0 34 -4
62 -8 62 -16 0 -61 -56 -89 -114 l-30 -59 -41 63 c-23 34 -42 66 -42 71 0 5
11 15 25 21 14 6 31 21 39 32 17 27 40 125 35 151 -4 17 -11 14 -52 -25 -27
-24 -55 -57 -64 -73 -17 -35 -25 -29 -47 37 -21 64 -20 66 8 66 13 0 36 12 51
28 28 27 75 115 75 140 0 17 -88 -28 -133 -68 l-34 -30 -7 38 c-3 20 -6 53 -6
72 0 35 1 36 33 32 24 -3 41 4 68 25 34 25 89 99 89 118 0 21 -131 -26 -174
-64 -18 -15 -18 -14 -11 49 4 36 10 68 14 72 4 4 20 4 37 -1 41 -12 74 4 135
64 l51 50 -28 3 c-48 6 -111 -8 -148 -33 -31 -21 -35 -22 -39 -7 -3 11 -5 8
-6 -8 l-2 -25 -17 21 c-10 11 -29 28 -43 37 -28 19 -114 47 -142 47 -17 0 -17
-1 0 -31z"/>
<path d="M2833 6280 c-54 -11 -118 -44 -137 -72 -9 -12 -16 -17 -16 -10 0 7
-4 11 -9 8 -5 -3 -14 1 -21 9 -18 22 -104 47 -152 43 l-43 -3 42 -46 c24 -25
61 -54 84 -64 38 -18 43 -18 69 -3 28 16 28 16 34 -14 3 -17 6 -51 6 -76 l0
-45 -24 22 c-25 24 -114 61 -146 61 -19 0 -18 -4 13 -52 41 -65 90 -100 132
-96 33 3 31 9 27 -98 l-2 -46 -37 32 c-39 34 -121 76 -130 66 -19 -19 68 -153
105 -162 42 -10 42 -11 20 -76 -21 -62 -21 -62 -37 -38 -8 14 -38 48 -65 75
l-51 50 -3 -29 c-4 -36 14 -113 34 -144 8 -13 27 -27 41 -33 17 -6 23 -14 19
-25 -10 -27 -78 -124 -86 -124 -4 0 -11 12 -14 26 -9 34 -47 93 -80 123 l-26
24 0 -69 c0 -77 21 -132 57 -150 17 -8 20 -13 11 -22 -8 -8 -8 -12 -1 -12 6 0
16 7 23 16 12 13 15 11 26 -16 8 -17 25 -35 41 -41 29 -11 151 -7 172 5 28 17
-100 86 -159 86 l-41 0 44 58 c25 31 50 68 57 80 l12 24 19 -21 c35 -38 107
-40 187 -5 l37 16 -55 26 c-37 18 -72 27 -108 27 -42 0 -51 3 -46 15 3 8 16
43 28 77 16 48 25 61 36 56 39 -17 89 -14 131 7 47 24 79 48 79 61 0 15 -114
22 -159 10 -24 -6 -46 -10 -48 -7 -2 2 -1 38 3 79 l7 76 27 -5 c36 -8 94 23
145 76 l40 42 -70 -4 c-43 -3 -86 -13 -111 -26 l-40 -20 -12 69 c-7 38 -12 73
-12 77 0 4 18 6 41 4 39 -4 44 -1 95 53 48 50 68 87 47 84 -5 -1 -27 -5 -50
-9z"/>
<path d="M9683 6118 c-7 -16 -6 -30 4 -48 7 -14 13 -35 13 -47 0 -19 35 -51
45 -41 4 4 -10 78 -20 101 -12 29 11 19 37 -15 32 -44 48 -82 49 -121 2 -30 2
-30 6 -5 4 24 8 27 36 23 l32 -5 -32 10 c-23 7 -37 21 -47 44 -7 18 -28 48
-45 68 -17 20 -31 41 -31 47 0 20 -37 11 -47 -11z"/>
<path d="M9800 6120 c36 -4 109 -8 163 -9 96 -1 97 -1 87 -22 -7 -11 -10 -23
-7 -25 2 -2 9 7 15 21 6 13 8 26 4 29 -4 2 -79 6 -167 9 -97 3 -134 2 -95 -3z"/>
<path d="M10093 6113 c9 -2 25 -2 35 0 9 3 1 5 -18 5 -19 0 -27 -2 -17 -5z"/>
<path d="M9647 5978 c-4 -32 -2 -45 11 -54 25 -19 34 -2 27 50 -9 58 -30 61
-38 4z"/>
<path d="M10021 5998 c-1 -22 2 -25 22 -20 17 5 18 7 5 10 -9 2 -19 11 -21 20
-3 10 -5 6 -6 -10z"/>
<path d="M9923 5993 c15 -2 39 -2 55 0 15 2 2 4 -28 4 -30 0 -43 -2 -27 -4z"/>
<path d="M10073 5963 c-7 -2 -13 -20 -13 -38 0 -29 -3 -32 -22 -27 -14 3 -19
2 -14 -6 11 -18 44 -14 49 6 10 34 17 72 15 71 -2 0 -9 -3 -15 -6z"/>
<path d="M9949 5953 c45 -3 69 -9 79 -21 13 -16 13 -16 8 1 -3 10 -6 21 -6 23
0 2 -33 3 -72 2 l-73 -2 64 -3z"/>
<path d="M9738 5923 c7 -3 16 -2 19 1 4 3 -2 6 -13 5 -11 0 -14 -3 -6 -6z"/>
<path d="M1530 5455 l0 -305 -372 -2 -373 -3 0 -308 0 -307 1095 0 c602 0
1103 0 1113 0 16 0 17 19 17 250 l0 250 -370 0 -370 0 0 365 0 365 -370 0
-370 0 0 -305z"/>
<path d="M9858 5703 c7 -3 16 -2 19 1 4 3 -2 6 -13 5 -11 0 -14 -3 -6 -6z"/>
<path d="M9663 5690 c-2 -3 -10 -5 -15 -5 -6 0 -13 -6 -15 -12 -3 -9 7 -13 30
-13 34 0 36 -2 42 -42 3 -24 9 -56 12 -72 5 -28 5 -29 -31 -23 -43 7 -49 -8
-6 -16 24 -5 30 -12 30 -31 0 -14 -8 -30 -17 -35 -12 -7 -14 -13 -7 -18 6 -5
14 -30 17 -56 4 -27 16 -67 27 -90 17 -36 19 -37 14 -12 -3 17 -8 67 -11 112
-4 63 -1 89 11 114 9 18 16 41 16 52 0 19 9 20 53 2 9 -4 17 -3 17 3 0 5 -13
12 -30 16 -34 6 -41 26 -10 26 13 0 20 7 20 18 0 10 11 29 25 42 21 20 27 21
42 9 16 -13 17 -12 5 3 -11 14 -9 18 15 27 25 10 25 11 3 6 -56 -11 -135 -16
-122 -8 7 6 -10 9 -49 9 -33 -1 -63 -3 -66 -6z m107 -55 c0 -19 -4 -35 -10
-35 -12 0 -24 45 -15 59 13 22 25 10 25 -24z"/>
<path d="M3403 5649 c-65 -19 -99 -123 -59 -184 36 -54 121 -69 172 -30 17 14
15 15 -32 9 -44 -5 -55 -3 -72 14 -29 29 -38 85 -20 130 12 33 18 37 48 37 27
0 37 -5 45 -22 14 -33 35 -29 35 7 0 25 -5 30 -37 39 -21 6 -40 11 -43 10 -3
0 -19 -5 -37 -10z"/>
<path d="M4929 5640 c-21 -11 -42 -32 -49 -50 -16 -39 -8 -115 15 -140 28 -31
85 -45 129 -30 55 18 55 32 -1 25 -42 -6 -51 -4 -69 17 -29 31 -37 71 -24 118
8 29 17 41 35 46 37 9 60 1 63 -24 5 -34 32 -28 32 8 0 25 -5 30 -37 39 -49
14 -51 14 -94 -9z"/>
<path d="M5213 5648 c-6 -7 -14 -24 -18 -38 -4 -14 -25 -62 -46 -106 -22 -45
-39 -84 -39 -85 0 -2 14 -4 30 -5 29 -1 30 0 24 32 l-6 34 52 0 51 0 -3 -32
c-3 -31 -2 -32 35 -33 42 0 54 9 39 28 -6 7 -29 55 -52 107 -49 109 -53 116
-67 98z m12 -104 c19 -46 20 -44 -15 -44 -16 0 -30 4 -30 9 0 12 21 71 26 71
2 0 11 -16 19 -36z"/>
<path d="M6060 5653 c-65 -21 -90 -56 -90 -126 0 -81 71 -132 151 -108 55 17
79 52 79 116 0 64 -24 100 -78 115 -40 11 -40 11 -62 3z m63 -40 c8 -10 18
-35 22 -55 21 -113 -69 -172 -111 -73 -18 43 -18 67 0 110 12 29 20 35 44 35
16 0 36 -8 45 -17z"/>
<path d="M6909 5644 c-97 -40 -91 -195 10 -225 43 -13 75 -8 106 16 19 14 17
15 -30 9 -42 -5 -53 -3 -68 14 -24 26 -35 78 -26 121 8 40 24 52 64 49 23 -2
31 -9 33 -25 5 -35 32 -29 32 7 0 25 -5 30 -37 39 -46 13 -40 13 -84 -5z"/>
<path d="M3583 5636 c24 -19 26 -191 1 -200 -8 -3 -12 -11 -9 -17 7 -10 168
-9 179 1 2 3 7 17 11 33 9 33 -13 38 -33 7 -15 -24 -67 -27 -76 -4 -20 53 6
83 42 47 16 -16 17 -14 20 21 4 47 0 52 -30 32 -31 -20 -38 -13 -38 36 0 35 2
38 30 38 19 0 33 -7 40 -20 13 -24 45 -28 36 -4 -3 9 -6 22 -6 30 0 11 -19 14
-92 14 -80 -1 -90 -3 -75 -14z"/>
<path d="M3823 5632 c13 -14 17 -38 17 -100 0 -44 -4 -84 -10 -87 -25 -16 -8
-31 35 -32 50 -1 63 8 40 27 -8 7 -15 25 -15 41 0 46 27 35 55 -22 24 -46 28
-50 57 -46 29 3 54 27 29 27 -6 0 -22 18 -37 41 l-26 41 21 15 c14 9 21 25 21
48 0 54 -19 65 -117 65 -83 0 -85 -1 -70 -18z m125 -14 c29 -29 7 -78 -35 -78
-21 0 -23 5 -23 45 0 40 2 45 23 45 13 0 28 -5 35 -12z"/>
<path d="M4080 5620 c0 -34 14 -39 30 -10 6 11 17 20 25 20 12 0 15 -18 15
-95 0 -80 -2 -95 -16 -95 -9 0 -14 -5 -12 -11 5 -16 118 -19 118 -2 0 7 -7 13
-15 13 -12 0 -15 17 -15 95 0 78 3 95 15 95 8 0 20 -9 27 -20 18 -28 42 -26
34 3 -3 12 -6 25 -6 30 0 4 -45 7 -100 7 l-100 0 0 -30z"/>
<path d="M4330 5641 c0 -5 7 -11 15 -15 22 -8 22 -181 -1 -190 -29 -11 -3 -26
41 -23 48 3 67 13 41 23 -24 9 -23 169 1 196 15 17 14 18 -40 18 -32 0 -57 -4
-57 -9z"/>
<path d="M4490 5640 c0 -5 5 -10 10 -10 6 0 10 -38 10 -95 0 -62 -4 -95 -11
-95 -6 0 -9 -5 -7 -11 2 -7 25 -12 53 -12 28 0 51 5 53 12 2 6 -3 11 -12 11
-12 0 -16 10 -16 35 0 29 4 35 20 35 11 0 23 -7 26 -15 11 -28 24 -15 24 25 0
38 -12 52 -25 30 -3 -5 -15 -10 -26 -10 -16 0 -19 7 -19 45 0 44 1 45 31 45
22 0 32 -5 36 -20 8 -32 33 -24 33 10 l0 30 -90 0 c-53 0 -90 -4 -90 -10z"/>
<path d="M4720 5640 c0 -5 5 -10 10 -10 6 0 10 -38 10 -95 0 -57 -4 -95 -10
-95 -5 0 -10 -7 -10 -15 0 -11 12 -14 50 -12 30 1 50 7 50 14 0 6 -5 13 -12
15 -15 5 -13 181 2 186 27 10 4 22 -40 22 -27 0 -50 -4 -50 -10z"/>
<path d="M5386 5628 c-9 -33 -8 -38 8 -38 8 0 18 9 21 20 3 11 15 20 26 20 17
0 19 -8 19 -95 0 -78 -3 -95 -15 -95 -8 0 -15 -6 -15 -13 0 -10 16 -13 60 -13
61 1 73 8 43 25 -14 7 -17 23 -16 93 1 45 2 86 2 91 2 15 31 6 41 -13 16 -29
30 -24 30 10 l0 30 -99 0 c-94 0 -99 -1 -105 -22z"/>
<path d="M5640 5640 c0 -5 5 -10 10 -10 15 0 13 -187 -2 -192 -6 -2 -9 -9 -5
-15 8 -13 158 -14 175 -1 17 15 15 58 -3 58 -8 0 -15 -6 -15 -14 0 -16 -21
-26 -56 -26 -21 0 -24 4 -24 40 0 33 4 40 19 40 10 0 22 -7 25 -16 9 -24 18
-10 21 31 2 38 -8 44 -31 20 -25 -25 -34 -17 -34 30 0 43 1 45 29 45 21 0 32
-6 36 -20 10 -31 37 -25 33 8 -3 27 -3 27 -90 30 -56 2 -88 -1 -88 -8z"/>
<path d="M6250 5641 c0 -5 7 -11 15 -15 22 -8 22 -181 -1 -190 -30 -11 -4 -24
48 -22 31 1 53 6 56 14 2 6 -3 12 -11 12 -16 0 -27 21 -27 51 0 24 45 27 54 3
10 -25 26 -6 26 32 0 23 -5 34 -14 34 -8 0 -16 -4 -18 -9 -1 -5 -12 -11 -23
-13 -17 -3 -20 3 -23 45 -3 46 -3 47 27 47 20 0 35 -7 43 -20 18 -28 28 -25
28 10 l0 30 -90 0 c-49 0 -90 -4 -90 -9z"/>
<path d="M6626 5553 c-21 -54 -45 -106 -54 -115 -8 -10 -13 -18 -11 -19 48 -9
86 4 59 21 -7 4 -10 15 -7 24 9 23 92 22 102 -1 3 -10 1 -19 -4 -21 -6 -2 -11
-9 -11 -17 0 -8 14 -12 44 -11 47 1 68 12 49 24 -7 4 -32 53 -56 107 -25 55
-51 101 -58 103 -9 1 -28 -32 -53 -95z m64 -44 c0 -5 -13 -9 -30 -9 -35 0 -35
-1 -14 48 l15 37 15 -34 c8 -18 14 -37 14 -42z"/>
<path d="M7090 5640 c0 -5 5 -10 10 -10 15 0 13 -187 -2 -192 -6 -2 -9 -9 -5
-14 8 -14 90 -10 95 4 2 7 -1 12 -7 12 -6 0 -11 18 -11 39 0 41 11 51 56 51
22 0 24 -4 24 -45 0 -26 -5 -45 -11 -45 -6 0 -9 -5 -7 -12 5 -14 87 -18 95 -5
3 5 -1 13 -8 18 -19 11 -20 180 -1 186 29 10 8 23 -38 23 -27 0 -50 -4 -50
-10 0 -5 5 -10 10 -10 6 0 10 -18 10 -41 l0 -40 -42 3 c-43 3 -43 3 -40 38 2
19 8 37 13 38 26 10 3 22 -41 22 -27 0 -50 -4 -50 -10z"/>
<path d="M7380 5644 c0 -3 7 -12 15 -20 22 -22 21 -157 -1 -179 -22 -22 -12
-29 41 -30 30 0 45 4 45 12 0 7 -4 13 -10 13 -6 0 -10 38 -10 95 0 57 4 95 10
95 6 0 10 5 10 10 0 6 -22 10 -50 10 -27 0 -50 -3 -50 -6z"/>
<path d="M7540 5640 c0 -5 5 -10 10 -10 6 0 10 -38 10 -95 0 -57 -4 -95 -10
-95 -5 0 -10 -7 -10 -15 0 -12 16 -14 85 -12 89 2 105 10 105 50 0 23 -22 22
-38 -3 -8 -13 -23 -20 -42 -20 -28 0 -30 2 -30 40 0 43 12 50 42 23 17 -15 18
-14 18 25 0 40 -11 54 -25 32 -3 -5 -14 -10 -23 -10 -16 0 -19 16 -13 73 1 4
14 7 30 7 21 0 32 -6 36 -20 3 -11 13 -20 22 -20 10 0 13 6 9 16 -3 9 -6 22
-6 30 0 11 -18 14 -85 14 -50 0 -85 -4 -85 -10z"/>
<path d="M7770 5641 c0 -6 4 -12 9 -15 5 -3 28 -53 51 -111 24 -59 47 -104 54
-102 6 2 30 50 54 108 24 57 47 106 52 107 23 8 7 22 -25 22 -19 0 -35 -4 -35
-10 0 -5 5 -10 11 -10 14 0 7 -31 -22 -97 l-21 -48 -26 69 c-18 49 -22 71 -14
74 29 9 8 22 -38 22 -27 0 -50 -4 -50 -9z"/>
<path d="M8040 5641 c0 -5 7 -11 15 -15 22 -8 22 -168 0 -186 -26 -22 -7 -28
82 -26 85 2 87 2 94 29 9 35 -10 48 -29 19 -10 -15 -25 -22 -48 -22 -33 0 -34
1 -34 40 0 33 4 40 19 40 10 0 21 -7 25 -15 11 -29 26 -15 26 25 0 42 -11 50
-36 25 -25 -25 -34 -17 -34 30 0 43 1 45 30 45 19 0 33 -7 40 -20 16 -29 30
-24 30 10 l0 30 -90 0 c-49 0 -90 -4 -90 -9z"/>
<path d="M8290 5644 c0 -4 6 -12 14 -18 19 -15 6 -174 -15 -187 -19 -11 -3
-23 32 -25 19 -1 29 3 29 12 0 8 -4 14 -10 14 -11 0 -14 89 -4 115 5 12 18 -6
46 -66 44 -92 50 -93 83 -9 9 25 22 56 28 70 l10 25 7 -30 c12 -47 11 -105 -1
-105 -6 0 -9 -6 -7 -12 3 -7 23 -13 47 -13 44 0 63 11 41 25 -6 4 -17 47 -22
94 -9 80 -9 88 8 102 17 13 15 14 -25 12 l-45 -3 -32 -80 -32 -80 -17 40 c-55
131 -50 125 -94 125 -23 0 -41 -3 -41 -6z"/>
<path d="M8640 5641 c0 -5 7 -11 15 -15 22 -8 22 -181 -1 -190 -8 -3 -12 -11
-9 -17 5 -6 39 -9 93 -7 84 3 86 4 93 30 9 36 -8 47 -28 19 -11 -16 -23 -21
-46 -19 -29 3 -32 7 -35 41 -3 31 0 37 16 37 11 0 22 -7 26 -15 11 -29 26 -15
26 25 0 29 -4 40 -15 40 -8 0 -15 -4 -15 -10 0 -5 -9 -10 -20 -10 -17 0 -20 7
-20 40 0 38 2 40 30 40 19 0 33 -7 40 -20 16 -29 30 -24 30 10 l0 30 -90 0
c-49 0 -90 -4 -90 -9z"/>
<path d="M8880 5641 c0 -5 7 -11 15 -15 22 -8 21 -158 -1 -181 -21 -20 -12
-29 32 -32 36 -2 45 12 18 31 -11 9 -14 27 -12 76 l3 64 64 -87 c36 -48 69
-86 75 -84 7 2 12 46 14 110 1 60 7 107 12 107 6 0 10 5 10 10 0 6 -16 10 -35
10 -19 0 -35 -4 -35 -10 0 -5 5 -10 10 -10 6 0 10 -25 10 -55 0 -30 -3 -55 -7
-55 -5 1 -28 30 -53 65 -42 60 -48 65 -82 65 -21 0 -38 -4 -38 -9z"/>
<path d="M9160 5636 c0 -8 -3 -21 -6 -30 -9 -24 23 -20 36 4 6 11 17 20 25 20
12 0 15 -18 15 -95 0 -78 -3 -95 -15 -95 -8 0 -15 -6 -15 -13 0 -8 18 -12 60
-12 42 0 60 4 60 12 0 7 -7 13 -15 13 -12 0 -15 17 -15 95 0 77 3 95 15 95 8
0 19 -9 25 -20 16 -29 30 -24 30 10 l0 30 -100 0 c-80 0 -100 -3 -100 -14z"/>
<path d="M9896 5603 c-6 -14 -5 -15 5 -6 7 7 10 15 7 18 -3 3 -9 -2 -12 -12z"/>
<path d="M9646 5601 c-3 -4 6 -6 19 -3 14 2 25 6 25 8 0 8 -39 4 -44 -5z"/>
<path d="M9860 5565 c-14 -8 -20 -14 -14 -15 5 0 19 7 30 15 24 18 16 19 -16
0z"/>
<path d="M9660 5550 c0 -5 4 -10 9 -10 6 0 13 5 16 10 3 6 -1 10 -9 10 -9 0
-16 -4 -16 -10z"/>
<path d="M5700 5184 c0 -47 4 -73 10 -69 6 3 10 37 10 76 0 39 -4 69 -10 69
-6 0 -10 -32 -10 -76z"/>
<path d="M5782 5248 c-20 -20 -13 -38 23 -60 45 -26 44 -54 -3 -52 -38 2 -43
-11 -7 -20 35 -9 65 9 65 40 0 18 -9 29 -35 41 -52 25 -40 60 16 46 15 -4 20
-3 15 5 -9 16 -59 15 -74 0z"/>
<path d="M5970 5185 c0 -43 4 -75 10 -75 6 0 10 14 10 30 0 25 4 30 24 30 45
0 72 50 44 78 -7 7 -29 12 -50 12 l-38 0 0 -75z m61 55 c26 -14 24 -39 -3 -49
-30 -11 -38 -6 -38 30 0 31 9 35 41 19z"/>
<path d="M6120 5186 c0 -78 16 -106 22 -39 l3 37 37 -39 c40 -42 52 -36 18 8
-18 22 -18 26 -4 38 8 7 14 24 12 38 -3 23 -8 26 -45 29 l-43 3 0 -75z m58 55
c21 -13 10 -46 -16 -49 -19 -3 -22 1 -22 27 0 31 13 39 38 22z"/>
<path d="M6270 5185 l0 -75 39 0 c22 0 43 5 46 10 4 6 -8 10 -29 10 -32 0 -36
3 -36 25 0 21 5 25 30 25 17 0 30 5 30 10 0 6 -13 10 -30 10 -25 0 -30 4 -30
24 0 21 5 25 38 29 34 3 33 4 -10 5 l-48 2 0 -75z"/>
<path d="M6417 5253 c-19 -18 -5 -52 28 -72 25 -14 33 -25 28 -37 -5 -12 -14
-15 -42 -11 -33 6 -35 5 -17 -8 24 -18 37 -19 60 -2 23 17 18 58 -9 72 -43 22
-47 26 -34 41 7 9 20 12 37 7 17 -4 23 -2 18 6 -8 12 -58 15 -69 4z"/>
<path d="M6540 5185 l0 -75 45 0 c25 0 45 5 45 10 0 6 -16 10 -35 10 -31 0
-35 3 -35 25 0 21 5 25 30 25 17 0 30 5 30 10 0 6 -13 10 -30 10 -25 0 -30 4
-30 24 0 21 5 25 38 29 34 3 33 4 -10 5 l-48 2 0 -75z"/>
<path d="M6680 5185 c0 -43 4 -75 10 -75 6 0 10 26 10 58 l1 57 27 -34 c15
-19 37 -46 49 -60 l22 -26 1 78 c0 85 -17 107 -22 26 l-3 -50 -39 50 c-21 28
-42 51 -47 51 -5 0 -9 -34 -9 -75z"/>
<path d="M6860 5251 c23 -6 25 -12 28 -74 2 -37 7 -67 12 -67 5 0 10 30 12 67
3 62 5 68 28 74 16 5 1 7 -40 7 -41 0 -56 -2 -40 -7z"/>
<path d="M7002 5188 l3 -73 43 -3 c25 -2 42 1 42 7 0 6 -16 11 -35 11 -31 0
-35 3 -35 25 0 21 5 25 30 25 17 0 30 5 30 10 0 6 -14 10 -31 10 -26 0 -30 3
-27 23 2 16 12 24 38 28 33 6 32 6 -13 8 l-48 1 3 -72z"/>
<path d="M7142 5188 l3 -73 42 1 c54 1 83 25 83 71 0 48 -29 73 -85 73 l-46 0
3 -72z m95 40 c18 -15 16 -58 -4 -80 -9 -10 -29 -18 -45 -18 -27 0 -28 1 -28
53 0 30 3 57 7 61 9 9 53 -1 70 -16z"/>
<path d="M7369 5251 c8 -5 20 -7 28 -4 10 4 13 -10 13 -60 0 -88 18 -97 22
-10 3 62 5 68 28 74 16 5 3 7 -40 8 -42 0 -60 -3 -51 -8z"/>
<path d="M7538 5243 c-41 -47 -24 -116 31 -128 51 -11 91 24 91 79 0 56 -86
90 -122 49z m82 -13 c24 -24 26 -57 3 -82 -23 -26 -59 -23 -79 7 -14 21 -14
30 -4 55 10 25 23 34 53 39 4 0 16 -8 27 -19z"/>
<path d="M11717 4920 c3 -11 9 -17 14 -14 5 3 9 -1 9 -8 0 -8 6 -6 18 5 15 16
15 19 2 27 -27 17 -49 12 -43 -10z"/>
<path d="M6361 4626 c-56 -12 -76 -32 -47 -48 9 -5 16 -21 16 -36 0 -24 -41
-276 -55 -340 -5 -22 -3 -23 41 -20 l47 3 13 63 c15 74 55 148 85 157 37 12
42 -7 25 -83 -20 -88 -20 -107 0 -126 20 -20 73 -20 102 0 29 20 28 44 -2 44
l-24 0 14 63 c18 84 18 142 -2 161 -35 36 -106 10 -156 -57 -24 -33 -29 -36
-24 -17 4 14 15 69 26 123 18 89 18 129 1 126 -3 -1 -30 -7 -60 -13z"/>
<path d="M7561 4626 c-59 -13 -74 -29 -45 -51 18 -13 18 -19 -10 -186 -16 -95
-31 -181 -34 -191 -4 -15 2 -18 41 -18 l46 0 12 58 c22 101 67 172 110 172 11
0 10 -34 -7 -152 -4 -33 -3 -53 6 -63 16 -19 63 -19 100 0 37 19 40 45 5 45
-29 0 -29 -3 -10 75 20 82 19 128 -3 148 -39 35 -104 11 -152 -55 -17 -22 -30
-39 -30 -36 0 2 9 44 20 94 20 90 26 175 13 173 -5 -1 -32 -7 -62 -13z"/>
<path d="M5187 4612 c-25 -27 -21 -60 8 -74 48 -22 100 43 63 80 -18 18 -53
15 -71 -6z"/>
<path d="M4690 4601 c0 -12 6 -21 15 -21 26 0 25 -41 -3 -195 -24 -132 -30
-151 -49 -160 -13 -5 -23 -18 -23 -29 0 -17 7 -18 123 -13 136 5 192 20 249
67 70 58 103 223 59 296 -33 54 -79 68 -233 72 -135 4 -138 3 -138 -17z m265
-45 c31 -31 40 -84 26 -154 -24 -122 -85 -188 -164 -180 -42 4 -44 25 -17 186
31 190 23 172 81 172 39 0 55 -5 74 -24z"/>
<path d="M6885 4607 c-42 -20 -62 -46 -69 -92 -9 -56 16 -99 89 -155 47 -36
61 -53 63 -77 4 -41 -20 -63 -67 -63 -45 0 -60 14 -68 64 -4 29 -10 36 -28 36
-19 0 -25 -7 -31 -42 -12 -61 -12 -59 26 -79 48 -26 144 -26 188 1 18 11 41
34 52 52 39 65 19 128 -58 179 -72 49 -92 70 -92 99 0 36 17 50 61 50 40 0 69
-26 69 -62 0 -12 8 -18 24 -18 21 0 25 6 29 43 2 27 -1 47 -9 57 -19 20 -140
25 -179 7z"/>
<path d="M5195 4470 c-11 -5 -32 -9 -47 -9 -21 -1 -28 -6 -28 -21 0 -11 7 -20
15 -20 19 0 19 -40 0 -104 -18 -59 -19 -108 -3 -124 17 -17 63 -15 98 3 34 17
40 45 11 45 -11 0 -22 3 -24 8 -3 4 4 43 15 87 29 122 19 159 -37 135z"/>
<path d="M5370 4466 c-38 -8 -56 -17 -58 -29 -2 -10 3 -17 12 -17 8 0 18 -5
21 -10 6 -10 -20 -185 -32 -216 -5 -12 3 -15 42 -12 l48 3 13 63 c22 106 83
187 117 153 8 -8 8 -24 -1 -58 -24 -95 -25 -128 -7 -146 23 -23 77 -21 109 4
28 22 26 39 -5 39 -23 0 -24 19 -5 109 17 76 7 118 -30 127 -38 10 -72 -4
-112 -45 l-37 -38 4 43 c3 49 7 48 -79 30z"/>
<path d="M5795 4463 c-62 -34 -95 -95 -95 -178 0 -75 27 -105 97 -105 55 0
116 28 121 55 3 15 0 16 -25 9 -67 -19 -106 -3 -101 41 2 14 14 22 46 28 49 9
122 72 122 104 0 11 -10 29 -23 41 -28 27 -97 29 -142 5z m95 -51 c0 -33 -23
-57 -62 -67 -24 -6 -28 -4 -28 15 0 24 17 61 34 72 6 4 21 8 34 8 18 0 22 -6
22 -28z"/>
<path d="M6060 4467 c-33 -17 -55 -57 -47 -89 4 -14 29 -48 57 -74 54 -51 60
-68 33 -82 -26 -14 -59 3 -67 33 -5 20 -12 26 -29 23 -17 -2 -23 -12 -28 -40
-5 -34 -4 -38 24 -48 17 -5 54 -10 84 -10 82 0 122 28 123 86 0 25 -11 41 -55
82 -57 54 -65 71 -40 92 20 17 62 -10 67 -42 2 -17 8 -22 23 -20 24 5 21 0 28
45 5 34 3 39 -19 47 -36 14 -124 12 -154 -3z"/>
<path d="M7215 4466 c-84 -38 -136 -159 -104 -243 13 -34 26 -43 64 -43 34 0
67 23 95 65 l20 30 0 -28 c0 -46 17 -67 53 -67 37 0 77 24 77 46 0 8 -9 14
-20 14 -26 0 -26 24 0 135 11 48 18 90 15 95 -8 14 -167 10 -200 -4z m100 -63
c-24 -132 -115 -218 -115 -109 0 93 32 146 88 146 34 0 34 0 27 -37z"/>
<path d="M7962 4465 c-41 -18 -67 -47 -92 -103 -70 -155 59 -255 150 -117 l20
30 0 -28 c0 -46 17 -67 53 -67 37 0 77 24 77 46 0 8 -9 14 -20 14 -26 0 -26
32 -1 135 11 42 18 82 15 89 -7 18 -161 19 -202 1z m104 -60 c-17 -89 -76
-178 -106 -160 -15 10 -12 101 5 142 19 45 30 53 74 53 33 0 33 -1 27 -35z"/>
<path d="M8253 4467 c-46 -12 -60 -40 -24 -50 23 -6 36 -46 57 -177 l15 -95
-32 -28 c-27 -25 -37 -28 -87 -26 -54 3 -57 2 -60 -23 -2 -20 3 -28 27 -38 16
-6 43 -9 59 -6 30 7 99 73 168 161 21 27 46 57 54 67 36 43 90 144 90 168 0
14 -6 34 -13 44 -12 16 -17 17 -63 3 -30 -8 -50 -21 -52 -31 -2 -9 3 -16 12
-16 9 0 22 -11 28 -25 9 -21 6 -34 -21 -90 -18 -36 -36 -63 -40 -60 -5 2 -11
35 -14 72 -9 89 -29 158 -47 159 -8 1 -34 -4 -57 -9z"/>
<path d="M4360 3891 c-15 -48 -8 -118 15 -140 16 -15 16 -14 9 19 -11 44 -11
86 0 128 11 46 -8 40 -24 -7z"/>
<path d="M8515 3913 c14 -35 17 -90 7 -126 -13 -46 2 -59 17 -15 21 58 8 158
-20 158 -7 0 -8 -7 -4 -17z"/>
<path d="M4451 3901 c-29 -29 -28 -81 2 -109 28 -26 69 -29 88 -5 13 15 11 16
-17 10 -40 -8 -66 11 -66 46 0 42 20 60 60 52 26 -5 33 -3 30 7 -8 23 -74 22
-97 -1z"/>
<path d="M4629 3893 c-47 -122 -47 -123 -34 -123 8 0 17 9 20 20 5 15 15 20
40 20 24 0 34 -5 38 -20 5 -20 27 -28 27 -10 0 5 -12 39 -26 75 -28 70 -48 82
-65 38z m40 -33 c9 -28 8 -30 -14 -30 -22 0 -23 2 -14 30 6 17 12 30 14 30 2
0 8 -13 14 -30z"/>
<path d="M4750 3910 c0 -5 11 -10 25 -10 24 0 25 -2 25 -65 0 -37 4 -65 10
-65 11 0 12 4 14 75 1 44 4 50 24 53 46 7 20 22 -38 22 -33 0 -60 -4 -60 -10z"/>
<path d="M4910 3845 l0 -75 45 0 c52 0 61 17 13 22 -25 2 -33 8 -33 23 0 14 8
21 28 23 33 4 26 22 -9 22 -17 0 -24 5 -24 20 0 16 7 20 35 20 19 0 35 5 35
10 0 6 -20 10 -45 10 l-45 0 0 -75z"/>
<path d="M5060 3900 c-46 -46 -9 -130 56 -130 37 0 54 16 54 52 0 23 -4 28
-25 28 -28 0 -32 -8 -10 -24 26 -19 2 -42 -32 -30 -22 7 -29 17 -31 42 -5 46
14 65 55 59 34 -6 54 7 27 17 -31 12 -74 6 -94 -14z"/>
<path d="M5230 3898 c-11 -12 -20 -35 -20 -50 0 -36 40 -78 75 -78 35 0 75 42
75 78 0 64 -85 98 -130 50z m81 -8 c23 -13 26 -62 3 -84 -18 -19 -16 -19 -48
-6 -21 8 -26 16 -26 43 0 51 28 70 71 47z"/>
<path d="M5400 3845 c0 -60 3 -75 15 -75 10 0 15 10 15 30 0 17 4 30 9 30 5 0
19 -13 31 -30 12 -16 28 -30 36 -30 12 0 11 6 -6 30 -20 28 -20 32 -6 52 9 12
16 26 16 30 0 19 -35 38 -71 38 l-39 0 0 -75z m75 30 c0 -13 -8 -21 -22 -23
-19 -3 -23 1 -23 23 0 22 4 26 23 23 14 -2 22 -10 22 -23z"/>
<path d="M5550 3915 c0 -3 11 -23 25 -45 14 -22 25 -53 25 -70 0 -20 5 -30 15
-30 10 0 15 10 15 33 0 17 11 51 25 75 18 31 20 42 10 42 -8 0 -21 -13 -30
-30 -9 -16 -19 -30 -24 -30 -5 0 -14 14 -21 30 -7 17 -19 30 -26 30 -8 0 -14
-2 -14 -5z"/>
<path d="M5950 3858 c-13 -35 -25 -69 -27 -75 -3 -7 2 -13 10 -13 8 0 17 9 20
20 4 14 14 20 35 20 22 0 32 -6 37 -20 3 -11 13 -20 22 -20 10 0 13 6 9 18
-59 159 -71 166 -106 70z m50 13 c0 -5 3 -16 6 -25 4 -12 0 -16 -15 -16 -22 0
-25 8 -15 34 7 17 24 22 24 7z"/>
<path d="M6100 3862 c0 -66 18 -92 62 -92 40 0 58 29 58 93 0 44 -3 57 -15 57
-11 0 -15 -13 -15 -53 0 -48 -12 -77 -31 -77 -22 0 -39 35 -39 81 0 27 -4 49
-10 49 -6 0 -10 -26 -10 -58z"/>
<path d="M6260 3910 c0 -5 9 -10 20 -10 18 0 20 -7 20 -65 0 -51 3 -65 15 -65
12 0 15 14 15 65 0 58 2 65 20 65 11 0 20 5 20 10 0 6 -25 10 -55 10 -30 0
-55 -4 -55 -10z"/>
<path d="M6410 3845 c0 -60 3 -75 15 -75 10 0 15 11 15 35 0 33 2 35 35 35 33
0 35 -2 35 -35 0 -24 5 -35 15 -35 12 0 15 15 15 75 0 60 -3 75 -15 75 -10 0
-15 -10 -15 -30 0 -28 -3 -30 -35 -30 -32 0 -35 2 -35 30 0 20 -5 30 -15 30
-12 0 -15 -15 -15 -75z"/>
<path d="M6606 3901 c-26 -29 -24 -91 4 -113 50 -41 120 -7 120 57 0 22 -8 43
-20 55 -26 26 -81 26 -104 1z m90 -26 c31 -48 -15 -101 -62 -70 -28 18 -32 56
-8 79 23 23 51 20 70 -9z"/>
<path d="M6780 3844 c0 -56 3 -75 13 -71 6 2 11 16 10 30 -3 36 17 34 42 -3
11 -16 26 -30 33 -30 17 0 15 8 -8 37 -17 22 -18 27 -5 40 35 34 10 73 -47 73
l-38 0 0 -76z m65 31 c0 -29 -37 -27 -42 3 -2 19 1 23 19 20 15 -2 23 -10 23
-23z"/>
<path d="M7006 3898 c-23 -33 -20 -83 6 -108 40 -37 98 -22 117 30 19 55 -12
100 -70 100 -28 0 -42 -6 -53 -22z m90 -23 c18 -28 11 -60 -17 -75 -45 -24
-89 42 -54 80 24 27 51 25 71 -5z"/>
<path d="M7180 3845 c0 -60 3 -75 15 -75 10 0 15 10 15 30 0 25 4 30 25 30 16
0 25 6 25 15 0 8 -3 14 -7 14 -27 -4 -43 3 -43 21 0 16 7 20 36 20 21 0 33 4
29 10 -3 6 -26 10 -51 10 l-44 0 0 -75z"/>
<path d="M7360 3910 c0 -5 11 -10 25 -10 24 0 25 -2 25 -65 0 -51 3 -65 15
-65 12 0 15 14 15 65 0 58 2 65 20 65 11 0 20 5 20 10 0 6 -27 10 -60 10 -33
0 -60 -4 -60 -10z"/>
<path d="M7520 3845 c0 -60 3 -75 15 -75 10 0 15 11 15 35 0 33 2 35 35 35 33
0 35 -2 35 -35 0 -24 5 -35 15 -35 12 0 15 15 15 75 0 60 -3 75 -15 75 -10 0
-15 -10 -15 -30 0 -28 -3 -30 -35 -30 -32 0 -35 2 -35 30 0 20 -5 30 -15 30
-12 0 -15 -15 -15 -75z"/>
<path d="M7700 3845 l0 -75 45 0 c25 0 45 5 45 10 0 6 -13 10 -30 10 -25 0
-30 4 -30 25 0 20 5 25 25 25 14 0 25 5 25 10 0 6 -11 10 -25 10 -18 0 -25 5
-25 20 0 16 7 20 30 20 17 0 30 5 30 10 0 6 -20 10 -45 10 l-45 0 0 -75z"/>
<path d="M7890 3913 c0 -5 12 -26 25 -48 14 -22 25 -52 25 -67 0 -16 5 -28 10
-28 6 0 10 12 10 28 0 15 11 45 25 67 28 46 30 55 11 55 -7 0 -19 -13 -26 -30
-15 -37 -21 -37 -42 0 -16 27 -38 41 -38 23z"/>
<path d="M8050 3845 l0 -75 50 0 c28 0 50 5 50 10 0 6 -16 10 -35 10 -31 0
-35 3 -35 25 0 20 5 25 25 25 14 0 25 5 25 10 0 6 -11 10 -25 10 -18 0 -25 5
-25 20 0 16 7 20 35 20 19 0 35 5 35 10 0 6 -22 10 -50 10 l-50 0 0 -75z"/>
<path d="M8213 3863 c-12 -32 -25 -66 -29 -75 -4 -12 -1 -18 9 -18 9 0 19 9
22 20 5 14 15 20 37 20 21 0 31 -6 35 -20 3 -11 12 -20 20 -20 8 0 13 6 10 13
-2 6 -14 40 -27 75 -29 80 -48 81 -77 5z m51 1 c10 -26 7 -34 -15 -34 -15 0
-19 4 -15 16 3 9 6 20 6 25 0 15 17 10 24 -7z"/>
<path d="M8360 3845 c0 -60 3 -75 15 -75 10 0 15 10 15 30 0 17 4 30 9 30 5 0
19 -13 31 -30 12 -16 28 -30 36 -30 12 0 11 6 -7 31 -16 23 -19 33 -10 42 15
15 14 50 -1 65 -7 7 -29 12 -50 12 l-38 0 0 -75z m75 30 c0 -13 -8 -21 -22
-23 -19 -3 -23 1 -23 23 0 22 4 26 23 23 14 -2 22 -10 22 -23z"/>
<path d="M5770 3830 c0 -5 11 -10 25 -10 14 0 25 5 25 10 0 6 -11 10 -25 10
-14 0 -25 -4 -25 -10z"/>
<path d="M3455 3368 c-8 -25 -26 -210 -21 -215 14 -15 36 9 36 39 0 43 20 82
44 86 18 4 19 -1 13 -62 -6 -60 -4 -66 12 -66 13 0 20 10 25 38 16 98 -1 135
-54 115 l-29 -11 6 44 c5 37 3 44 -11 44 -9 0 -19 -6 -21 -12z"/>
<path d="M4277 3373 c-8 -14 -29 -214 -24 -220 4 -3 12 -3 20 0 9 3 17 30 21
74 4 37 10 87 13 111 5 34 3 42 -10 42 -9 0 -18 -3 -20 -7z"/>
<path d="M4756 3358 c-5 -23 -26 -184 -26 -198 0 -13 85 -8 107 6 26 16 47 76
39 109 -8 31 -41 41 -71 21 l-24 -16 6 50 c5 42 3 50 -10 50 -9 0 -19 -10 -21
-22z m82 -110 c4 -32 -29 -74 -51 -65 -23 9 -21 39 4 71 25 32 43 29 47 -6z"/>
<path d="M4947 3348 c-3 -18 -9 -60 -12 -93 -3 -33 -8 -70 -11 -82 -3 -18 0
-23 16 -23 11 0 20 6 20 13 1 6 7 56 14 110 7 53 10 99 8 102 -14 14 -30 1
-35 -27z"/>
<path d="M6235 3368 c-6 -20 -25 -166 -25 -192 0 -20 5 -23 46 -24 65 -1 96
33 92 96 -4 53 -26 74 -58 54 -30 -18 -32 -16 -24 33 5 38 4 45 -10 45 -9 0
-18 -6 -21 -12z m80 -108 c9 -28 -16 -74 -43 -78 -18 -3 -22 1 -22 23 0 31 27
75 45 75 8 0 16 -9 20 -20z"/>
<path d="M7847 3348 c-3 -18 -9 -60 -12 -93 -3 -33 -8 -70 -11 -82 -3 -18 0
-23 15 -23 15 0 20 10 26 49 7 50 34 89 54 77 7 -5 8 -29 4 -66 -5 -50 -3 -60
10 -60 20 0 27 21 27 90 0 49 -3 60 -20 65 -10 3 -29 1 -40 -5 -21 -11 -22
-10 -19 32 3 33 0 44 -12 46 -12 2 -18 -7 -22 -30z"/>
<path d="M8481 3370 c-17 -10 -7 -40 13 -40 7 0 16 6 19 14 8 19 -15 37 -32
26z"/>
<path d="M10270 3368 c-1 -7 -7 -59 -14 -115 -12 -96 -11 -103 5 -103 9 0 19
10 22 23 5 21 20 171 19 192 -1 15 -32 18 -32 3z"/>
<path d="M10467 3373 c-4 -3 -7 -21 -7 -39 0 -32 -2 -33 -29 -28 -22 5 -34 0
-50 -17 -55 -60 -30 -168 30 -131 15 10 24 11 32 3 23 -23 34 -10 40 52 4 34
10 86 13 115 6 42 4 52 -8 52 -8 0 -18 -3 -21 -7z m-17 -121 c0 -50 -49 -95
-63 -58 -13 34 14 86 44 86 14 0 19 -7 19 -28z"/>
<path d="M2796 3354 c-9 -8 -16 -21 -16 -29 0 -7 -7 -16 -16 -19 -13 -5 -14
-9 -4 -21 8 -10 9 -38 4 -95 -6 -70 -5 -80 9 -74 9 3 18 23 21 45 3 21 9 57
12 78 4 28 11 41 26 44 22 6 16 27 -8 27 -22 0 -17 16 14 39 l27 20 -27 1
c-15 0 -34 -7 -42 -16z"/>
<path d="M6125 3360 c-8 -14 3 -30 21 -30 8 0 14 9 14 20 0 21 -24 28 -35 10z"/>
<path d="M6750 3355 c0 -21 30 -31 40 -14 11 17 3 29 -21 29 -10 0 -19 -7 -19
-15z"/>
<path d="M7320 3355 c0 -21 30 -31 40 -14 11 17 3 29 -21 29 -10 0 -19 -7 -19
-15z"/>
<path d="M8296 3298 c-4 -40 -9 -90 -13 -110 l-6 -38 62 0 c48 0 61 3 61 15 0
11 -11 15 -41 15 -34 0 -40 3 -35 18 2 9 7 52 11 95 6 72 5 77 -13 77 -17 0
-20 -10 -26 -72z"/>
<path d="M9610 3358 c0 -7 4 -31 9 -53 5 -22 12 -66 16 -97 5 -47 10 -58 25
-58 14 0 27 21 52 82 l33 81 15 -81 c11 -64 18 -82 31 -82 9 0 19 6 22 13 84
198 87 208 65 205 -17 -2 -28 -19 -48 -70 -14 -36 -28 -69 -31 -72 -3 -3 -11
28 -18 70 -16 98 -34 96 -75 -6 l-31 -75 -7 40 c-4 22 -10 57 -13 78 -5 28
-11 37 -25 37 -11 0 -20 -6 -20 -12z"/>
<path d="M3326 3331 c-9 -16 -21 -32 -28 -34 -10 -4 -10 -8 1 -15 10 -7 12
-23 7 -60 -7 -53 7 -77 40 -70 22 4 31 28 10 28 -17 0 -20 19 -10 69 5 21 12
31 25 31 25 0 24 16 -1 30 -10 6 -17 17 -14 24 11 28 -16 26 -30 -3z"/>
<path d="M5867 3353 c-4 -3 -7 -14 -7 -24 0 -10 -8 -23 -17 -28 -11 -7 -14
-14 -8 -18 6 -5 10 -35 10 -68 0 -60 0 -60 29 -60 16 0 31 6 34 13 2 6 -3 12
-12 12 -12 0 -16 11 -16 50 0 43 3 50 20 50 11 0 20 7 20 15 0 8 -6 14 -12 13
-8 -2 -14 9 -16 25 -3 26 -12 34 -25 20z"/>
<path d="M6633 3343 c-3 -10 -11 -25 -18 -33 -7 -10 -9 -39 -6 -85 6 -69 6
-70 35 -70 16 0 31 6 34 13 2 7 -5 12 -18 12 -20 0 -22 4 -16 31 3 17 6 40 6
50 0 12 7 19 20 19 11 0 20 7 20 15 0 8 -7 15 -15 15 -9 0 -15 9 -15 25 0 29
-18 34 -27 8z"/>
<path d="M7724 3336 c-3 -15 -14 -31 -23 -37 -12 -8 -13 -11 -3 -16 9 -4 11
-20 6 -63 -6 -57 -6 -59 19 -65 27 -7 47 0 47 16 0 5 -7 9 -15 9 -10 0 -15 10
-15 34 0 47 9 66 31 66 25 0 24 20 -1 27 -14 4 -20 12 -18 26 4 30 -20 33 -28
3z"/>
<path d="M8602 3348 c-7 -7 -12 -18 -12 -25 0 -6 -8 -17 -17 -22 -13 -8 -15
-13 -6 -19 8 -5 11 -30 10 -67 l-2 -60 29 0 c16 0 31 6 34 13 2 6 -3 12 -12
12 -12 0 -16 10 -16 34 0 48 9 66 32 66 11 0 18 5 16 13 -3 6 -11 12 -19 12
-8 0 -14 10 -14 22 -1 28 -8 36 -23 21z"/>
<path d="M2920 3293 c-35 -23 -40 -33 -40 -74 0 -65 55 -89 105 -46 36 31 44
88 16 116 -25 25 -48 27 -81 4z m58 -51 c4 -38 -12 -62 -39 -62 -19 0 -24 14
-19 55 6 54 53 59 58 7z"/>
<path d="M3075 3263 c-3 -27 -8 -63 -11 -80 -4 -28 -2 -33 16 -33 15 0 20 6
20 25 0 37 27 95 43 95 18 0 30 27 16 36 -6 3 -19 -2 -30 -12 -17 -16 -19 -16
-19 -1 0 10 -6 17 -14 17 -10 0 -17 -16 -21 -47z"/>
<path d="M3649 3281 c-67 -67 -9 -164 72 -121 31 17 22 30 -18 27 -27 -1 -38
2 -41 14 -2 11 7 18 29 23 40 8 59 23 59 47 0 19 -28 39 -55 39 -9 0 -30 -13
-46 -29z m66 -11 c6 -10 -44 -35 -53 -26 -8 8 19 36 34 36 7 0 16 -5 19 -10z"/>
<path d="M3888 3304 c-3 -3 -2 -20 2 -37 5 -18 14 -51 20 -74 6 -26 17 -43 25
-43 16 0 93 145 83 156 -12 12 -30 -9 -53 -60 l-23 -51 -11 58 c-11 51 -26 69
-43 51z"/>
<path d="M4110 3293 c-40 -28 -50 -46 -47 -87 3 -48 26 -67 59 -47 16 10 23
10 26 2 6 -19 31 -12 37 12 2 12 6 47 7 77 3 55 3 55 -27 58 -17 1 -41 -5 -55
-15z m50 -28 c0 -30 -29 -85 -44 -85 -22 0 -21 63 0 84 20 20 44 21 44 1z"/>
<path d="M4365 3298 c-13 -45 -14 -116 -1 -133 13 -18 18 -19 48 -7 21 8 34 9
36 2 2 -5 9 -10 17 -10 14 0 25 51 25 118 0 55 -26 59 -35 5 -8 -50 -27 -88
-45 -88 -12 0 -14 13 -12 63 3 52 1 62 -13 62 -8 0 -17 -6 -20 -12z"/>
<path d="M4588 3293 c-15 -10 -32 -29 -38 -44 -25 -61 7 -118 51 -91 17 11 23
11 29 1 5 -6 14 -9 22 -6 15 5 33 130 22 148 -9 15 -57 10 -86 -8z m49 -49
c-11 -65 -57 -92 -57 -32 0 34 24 68 48 68 11 0 13 -8 9 -36z"/>
<path d="M5063 3295 c-31 -22 -48 -78 -32 -107 7 -13 17 -26 23 -30 21 -14 63
-8 81 12 17 19 16 19 -26 17 -34 -2 -44 2 -47 16 -2 12 3 17 17 17 36 0 71 22
71 45 0 43 -45 59 -87 30z m57 -25 c0 -11 -40 -34 -47 -26 -3 3 -3 12 0 21 7
16 47 21 47 5z"/>
<path d="M5315 3285 c-19 -18 -25 -35 -25 -70 0 -39 4 -47 25 -57 29 -13 75
-2 83 20 3 10 -4 12 -32 7 -32 -6 -36 -5 -42 19 -9 38 20 80 50 72 28 -7 40 3
25 21 -18 21 -58 15 -84 -12z"/>
<path d="M5475 3285 c-18 -17 -25 -35 -25 -63 0 -84 85 -99 126 -21 40 78 -41
145 -101 84z m73 -31 c5 -33 -15 -74 -37 -74 -33 0 -38 51 -8 88 15 18 41 10
45 -14z"/>
<path d="M5646 3283 c-3 -16 -8 -52 -11 -80 -6 -48 -5 -53 13 -53 16 0 21 9
26 49 6 47 38 93 54 77 4 -4 5 -34 4 -67 -3 -47 -1 -59 11 -59 18 0 27 30 27
97 0 43 -3 53 -20 58 -10 3 -29 1 -42 -6 -16 -9 -23 -9 -26 0 -7 21 -30 11
-36 -16z"/>
<path d="M5976 3283 c-3 -16 -8 -52 -11 -80 -6 -49 -5 -53 14 -53 17 0 21 6
21 35 0 46 19 85 42 85 11 0 18 7 18 20 0 24 -13 26 -31 4 -11 -14 -13 -14
-21 0 -13 24 -26 19 -32 -11z"/>
<path d="M6116 3278 c-17 -111 -16 -128 4 -128 16 0 20 10 26 70 8 86 8 84
-10 88 -10 2 -16 -7 -20 -30z"/>
<path d="M6406 3243 c-6 -53 -4 -69 9 -82 13 -13 20 -13 48 -3 20 8 33 9 35 2
2 -5 10 -10 17 -10 9 0 15 24 20 76 7 80 5 90 -20 81 -10 -4 -15 -19 -15 -44
0 -43 -23 -83 -47 -83 -13 0 -14 10 -8 65 6 60 5 65 -13 65 -16 0 -20 -10 -26
-67z"/>
<path d="M6747 3278 c-20 -116 -20 -128 0 -128 17 0 21 9 27 53 3 28 6 64 6
80 0 39 -26 35 -33 -5z"/>
<path d="M6877 3299 c-28 -16 -49 -67 -42 -100 19 -85 135 -51 135 40 0 61
-43 89 -93 60z m57 -36 c4 -9 1 -31 -5 -50 -8 -27 -16 -33 -32 -31 -42 6 -30
98 12 98 11 0 22 -7 25 -17z"/>
<path d="M7036 3298 c-3 -7 -7 -44 -11 -81 -5 -62 -4 -68 12 -65 12 2 20 16
24 43 7 51 25 85 46 85 13 0 15 -10 11 -65 -5 -58 -4 -65 12 -65 15 0 20 11
25 54 9 66 5 86 -17 100 -13 8 -23 7 -39 -2 -15 -10 -24 -11 -32 -3 -15 15
-27 14 -31 -1z"/>
<path d="M7316 3271 c-19 -130 -19 -121 2 -121 21 0 23 11 35 135 1 11 -5 21
-15 23 -12 2 -18 -7 -22 -37z"/>
<path d="M7426 3301 c-3 -5 -9 -41 -12 -80 -6 -61 -5 -71 9 -71 11 0 18 12 22
38 8 51 27 86 49 90 18 4 18 -1 12 -62 -6 -61 -5 -66 12 -66 16 0 21 10 26 60
10 88 -12 118 -67 89 -16 -9 -22 -9 -25 0 -4 13 -19 15 -26 2z"/>
<path d="M8053 3295 c-12 -9 -27 -32 -33 -53 -8 -31 -7 -41 9 -62 21 -30 67
-37 95 -15 14 11 17 18 9 26 -8 8 -13 8 -17 0 -7 -10 -56 -16 -56 -7 0 2 -3
11 -6 20 -4 12 0 16 16 16 35 0 79 29 80 52 0 14 -33 38 -53 38 -13 0 -32 -7
-44 -15z m57 -29 c0 -7 -10 -16 -22 -19 -27 -7 -32 -3 -25 18 8 19 47 20 47 1z"/>
<path d="M8465 3258 c-3 -29 -8 -65 -11 -80 -5 -23 -2 -28 14 -28 21 0 23 11
35 135 1 11 -5 21 -14 23 -14 2 -18 -8 -24 -50z"/>
<path d="M8727 3290 c-54 -43 -41 -140 19 -140 33 0 64 17 64 35 0 12 -5 12
-24 3 -14 -6 -32 -8 -40 -5 -28 11 -17 33 21 43 44 11 63 36 47 62 -16 25 -56
26 -87 2z m63 -20 c0 -10 -32 -30 -50 -30 -8 0 -8 6 0 20 11 20 50 28 50 10z"/>
<path d="M8886 3301 c-3 -5 -9 -41 -12 -80 -6 -60 -4 -71 8 -71 10 0 18 13 22
38 12 62 17 73 42 82 13 5 24 17 24 26 0 16 -2 16 -47 -3 -7 -3 -13 0 -13 6 0
13 -17 15 -24 2z"/>
<path d="M9041 3284 c-34 -29 -49 -81 -32 -113 13 -23 50 -28 70 -8 11 10 14
10 18 0 3 -7 10 -13 17 -13 12 0 26 79 26 141 0 30 -61 25 -99 -7z m59 -33 c0
-34 -31 -77 -48 -67 -17 10 -15 48 4 74 22 32 44 28 44 -7z"/>
<path d="M9205 3263 c-3 -27 -8 -63 -11 -80 -4 -28 -2 -33 14 -33 15 0 21 11
28 53 7 39 14 54 32 62 12 5 22 18 22 27 0 22 -8 23 -32 1 -17 -15 -18 -15
-18 0 0 10 -6 17 -14 17 -10 0 -17 -16 -21 -47z"/>
<path d="M9340 3295 c0 -9 7 -42 16 -72 15 -51 15 -59 0 -89 -15 -32 -15 -34
2 -34 13 0 32 29 67 100 47 95 53 128 21 100 -9 -6 -21 -27 -28 -46 -16 -45
-25 -43 -35 8 -6 28 -15 44 -26 46 -11 2 -17 -3 -17 -13z"/>
<path d="M9960 3293 c-35 -23 -40 -33 -40 -74 0 -65 55 -89 105 -46 36 31 44
88 16 116 -25 25 -48 27 -81 4z m58 -51 c4 -38 -12 -62 -39 -62 -19 0 -24 14
-19 55 6 54 53 59 58 7z"/>
<path d="M10115 3253 c-3 -32 -8 -68 -11 -80 -3 -18 0 -23 16 -23 12 0 20 7
20 18 0 44 22 93 46 102 13 5 24 16 24 25 0 19 -10 19 -38 -1 -20 -14 -22 -14
-22 0 0 9 -6 16 -14 16 -10 0 -16 -17 -21 -57z"/>
<path d="M10542 3173 c2 -10 10 -18 18 -18 8 0 16 8 18 18 2 12 -3 17 -18 17
-15 0 -20 -5 -18 -17z"/>
<path d="M5753 3004 c-8 -21 13 -42 28 -27 13 13 5 43 -11 43 -6 0 -13 -7 -17
-16z"/>
<path d="M5993 3004 c-8 -21 13 -42 28 -27 13 13 5 43 -11 43 -6 0 -13 -7 -17
-16z"/>
<path d="M8153 3004 c-8 -21 13 -42 28 -27 13 13 5 43 -11 43 -6 0 -13 -7 -17
-16z"/>
<path d="M8394 3005 c-7 -18 3 -35 21 -35 15 0 28 27 19 41 -8 14 -34 11 -40
-6z"/>
<path d="M4431 2904 c-7 -59 -10 -109 -7 -111 14 -15 34 11 40 52 9 56 21 54
56 -6 17 -28 34 -45 49 -47 22 -3 22 -3 -9 58 l-31 62 41 49 c39 46 40 49 18
49 -15 0 -35 -15 -58 -45 -46 -58 -59 -58 -52 0 4 40 2 45 -15 45 -17 0 -21
-12 -32 -106z"/>
<path d="M5274 2993 c3 -10 12 -58 19 -106 8 -48 17 -90 20 -94 15 -14 35 10
61 76 15 39 31 71 36 71 4 0 12 -33 17 -72 7 -62 11 -73 27 -73 15 0 29 24 62
104 24 57 44 106 44 108 0 3 -9 3 -21 1 -16 -2 -28 -20 -47 -70 -15 -38 -29
-68 -33 -68 -3 0 -10 30 -15 67 -13 95 -32 96 -70 3 -16 -38 -32 -70 -35 -70
-3 0 -10 30 -15 68 -8 60 -12 67 -32 70 -19 3 -23 0 -18 -15z"/>
<path d="M6655 2988 c-9 -42 -22 -183 -18 -190 2 -5 11 -8 18 -8 10 0 17 17
21 50 8 63 25 64 55 5 20 -41 52 -65 66 -51 3 3 -9 31 -27 62 l-31 56 23 27
c64 71 64 71 37 71 -16 -1 -35 -15 -59 -45 -19 -25 -38 -45 -42 -45 -5 0 -8
20 -8 45 0 33 -4 45 -15 45 -8 0 -17 -10 -20 -22z"/>
<path d="M7510 3003 c-1 -5 -7 -52 -14 -106 -11 -84 -11 -100 1 -104 21 -8 24
-1 34 79 4 40 11 88 14 106 5 27 3 32 -15 32 -11 0 -20 -3 -20 -7z"/>
<path d="M8886 2988 c-9 -35 -7 -118 3 -118 12 0 18 18 26 83 6 47 5 57 -8 57
-8 0 -17 -10 -21 -22z"/>
<path d="M5870 2975 c-5 -14 -13 -25 -18 -25 -11 0 -6 -140 6 -152 12 -12 62
-3 62 11 0 5 -10 11 -21 14 -17 5 -20 11 -15 29 3 13 6 33 6 46 0 15 6 22 20
22 11 0 20 7 20 15 0 8 -7 15 -15 15 -9 0 -15 9 -15 25 0 14 -5 25 -10 25 -6
0 -15 -11 -20 -25z"/>
<path d="M4666 2923 c-22 -22 -26 -34 -24 -67 4 -54 39 -76 87 -57 42 18 39
31 -6 28 -29 -1 -38 2 -41 16 -2 10 3 17 13 17 28 0 75 30 75 48 0 48 -63 57
-104 15z m74 -11 c0 -11 -46 -33 -53 -25 -3 3 -3 11 0 19 5 15 53 20 53 6z"/>
<path d="M4842 2927 c-34 -36 -40 -89 -13 -116 32 -32 101 -22 101 14 0 12 -5
12 -24 3 -29 -12 -56 -5 -56 16 0 8 16 18 36 23 44 10 64 35 48 61 -17 27 -66
27 -92 -1z m68 -18 c0 -11 -50 -32 -58 -24 -3 3 3 14 12 24 17 19 46 19 46 0z"/>
<path d="M4991 2849 c-7 -56 -10 -103 -7 -106 12 -13 36 8 36 32 0 22 3 25 25
19 38 -9 85 42 85 93 0 22 -5 44 -12 51 -16 16 -50 15 -67 0 -11 -10 -14 -10
-18 0 -3 6 -10 12 -17 12 -9 0 -17 -33 -25 -101z m99 40 c0 -41 -16 -69 -40
-69 -25 0 -27 45 -4 78 22 32 44 28 44 -9z"/>
<path d="M5596 2904 c-3 -26 -6 -62 -6 -80 0 -48 26 -45 34 4 12 62 17 73 42
82 13 5 24 16 24 25 0 20 -19 19 -42 -2 -17 -15 -18 -15 -18 0 0 10 -6 17 -14
17 -8 0 -16 -17 -20 -46z"/>
<path d="M5746 2942 c-2 -4 -8 -40 -11 -80 -7 -62 -5 -72 8 -72 22 0 23 5 31
88 6 60 5 72 -8 72 -8 0 -17 -3 -20 -8z"/>
<path d="M5986 2923 c-3 -16 -8 -52 -12 -81 -6 -49 -4 -54 12 -50 20 3 32 49
33 121 1 44 -24 52 -33 10z"/>
<path d="M6085 2880 c-9 -87 -9 -84 9 -88 10 -2 16 10 21 40 8 52 30 88 51 88
14 0 15 -9 9 -66 -6 -60 -5 -66 12 -62 14 2 20 16 25 62 5 35 4 66 -3 77 -11
22 -49 25 -68 7 -11 -10 -14 -10 -18 0 -3 6 -11 12 -18 12 -9 0 -15 -22 -20
-70z"/>
<path d="M6291 2931 c-11 -11 -21 -26 -21 -32 0 -25 22 -49 46 -49 35 0 26
-22 -11 -27 -82 -11 -70 -83 14 -83 41 0 74 41 60 77 -10 26 6 91 26 105 15
11 2 17 -47 24 -38 5 -49 3 -67 -15z m58 -42 c-14 -27 -39 -24 -39 5 0 27 18
39 37 24 9 -7 10 -16 2 -29z m1 -99 c0 -13 -32 -28 -47 -23 -26 9 -13 33 17
33 17 0 30 -4 30 -10z"/>
<path d="M6883 2928 c-29 -32 -37 -65 -23 -99 15 -36 53 -48 89 -28 24 14 30
38 8 30 -28 -10 -62 -5 -65 9 -2 11 11 19 43 28 40 11 45 15 45 41 0 46 -61
58 -97 19z m67 -19 c0 -10 -50 -32 -57 -25 -3 2 5 14 17 26 20 20 40 20 40 -1z"/>
<path d="M7054 2925 c-35 -35 -31 -103 7 -124 22 -12 31 -12 58 -2 42 18 39
33 -5 25 -26 -5 -39 -3 -45 7 -14 22 -12 24 35 37 47 12 62 32 46 63 -15 28
-65 25 -96 -6z m62 -23 c-3 -5 -15 -12 -26 -15 -25 -6 -27 18 -2 32 18 11 38
-1 28 -17z"/>
<path d="M7216 2928 c-3 -13 -8 -50 -11 -83 -4 -33 -9 -70 -12 -82 -4 -18 -1
-23 16 -23 17 0 21 6 21 30 0 27 2 29 29 24 54 -11 104 71 81 131 -10 28 -46
34 -69 13 -11 -10 -14 -10 -18 0 -8 20 -32 14 -37 -10z m92 -36 c4 -28 -23
-72 -44 -72 -24 0 -28 29 -10 67 19 39 49 42 54 5z"/>
<path d="M7606 2913 c-13 -87 -11 -118 6 -121 12 -2 17 8 23 47 7 49 34 89 53
77 6 -3 8 -32 5 -67 -6 -56 -4 -61 13 -57 15 2 20 15 25 58 3 30 2 65 -2 78
-10 26 -44 29 -71 5 -17 -15 -18 -15 -18 0 0 34 -28 17 -34 -20z"/>
<path d="M7805 2926 c-21 -31 -14 -53 20 -66 14 -5 25 -17 25 -26 0 -13 -7
-16 -35 -11 -26 4 -35 2 -35 -8 0 -23 47 -29 75 -11 34 22 34 63 0 78 -35 16
-29 44 9 40 20 -3 27 0 24 10 -3 7 -19 14 -36 16 -24 2 -34 -2 -47 -22z"/>
<path d="M7947 2903 c-20 -164 -20 -163 -3 -163 10 0 19 11 22 30 6 25 10 29
30 24 37 -9 84 43 84 93 0 22 -5 44 -12 51 -16 16 -50 15 -67 0 -11 -10 -14
-10 -18 0 -11 29 -31 10 -36 -35z m93 -14 c0 -41 -16 -69 -40 -69 -25 0 -27
45 -4 78 22 32 44 28 44 -9z"/>
<path d="M8146 2942 c-2 -4 -8 -40 -11 -80 -7 -62 -5 -72 8 -72 22 0 23 5 31
88 6 60 5 72 -8 72 -8 0 -17 -3 -20 -8z"/>
<path d="M8246 2918 c-18 -118 -18 -130 0 -126 13 2 21 17 27 48 9 47 33 84
48 74 5 -3 9 4 9 15 0 25 -8 26 -32 4 -17 -15 -18 -15 -18 0 0 31 -29 18 -34
-15z"/>
<path d="M8386 2913 c-11 -69 -7 -123 8 -123 10 0 17 16 21 48 3 26 8 62 11
80 4 27 2 32 -14 32 -15 0 -21 -9 -26 -37z"/>
<path d="M8497 2943 c-3 -5 -8 -41 -12 -81 -7 -69 -6 -74 11 -70 14 2 20 15
24 49 6 50 23 79 48 79 12 0 14 -11 9 -65 -6 -59 -4 -65 12 -65 27 0 41 124
17 148 -13 14 -21 14 -46 5 -18 -7 -32 -7 -36 -2 -6 11 -21 12 -27 2z"/>
<path d="M8699 2934 c-36 -42 -27 -79 19 -86 34 -5 27 -22 -10 -26 -40 -4 -58
-18 -58 -43 0 -41 86 -54 120 -17 23 25 24 32 9 59 -11 21 6 87 26 101 15 11
2 17 -46 24 -35 5 -47 2 -60 -12z m55 -47 c-8 -23 -44 -22 -44 1 0 10 5 23 12
30 16 16 41 -8 32 -31z m-4 -102 c0 -10 -10 -15 -30 -15 -20 0 -30 5 -30 15 0
10 10 15 30 15 20 0 30 -5 30 -15z"/>
<path d="M6453 2833 c-15 -6 -17 -33 -3 -33 6 0 8 -11 4 -27 -6 -25 -5 -26 8
-15 32 26 24 88 -9 75z"/>
<path d="M8871 2831 c-15 -10 -8 -41 9 -41 15 0 25 29 14 40 -5 5 -15 5 -23 1z"/>
<path d="M4475 2268 c-49 -50 -76 -91 -129 -198 -56 -111 -67 -128 -62 -93 3
23 26 106 51 184 25 79 45 146 45 151 0 64 -103 -237 -121 -356 -8 -52 -8 -71
1 -80 10 -8 14 -7 18 4 3 8 39 82 80 164 58 117 86 162 131 208 43 44 64 58
85 58 l29 0 -5 -67 c-7 -88 -36 -150 -91 -188 -133 -94 -207 -205 -136 -205
27 0 119 94 171 174 49 77 80 176 76 247 l-3 54 -39 3 c-36 3 -43 -1 -101 -60z
m-1 -299 c-57 -72 -104 -110 -104 -84 0 19 122 145 140 145 6 0 -10 -27 -36
-61z"/>
<path d="M2527 2202 c-77 -194 -122 -422 -83 -422 7 0 39 51 71 113 74 141
106 196 161 274 48 67 107 119 124 108 16 -10 12 -59 -12 -132 -17 -52 -34
-80 -73 -120 -51 -53 -85 -67 -85 -36 0 9 10 27 22 40 29 31 14 42 -18 13 -18
-18 -24 -33 -22 -55 8 -80 129 -4 182 116 47 104 46 199 -3 199 -50 0 -163
-149 -281 -370 l-61 -115 6 60 c9 75 45 201 96 331 41 106 44 114 31 114 -4 0
-29 -53 -55 -118z"/>
<path d="M6433 2177 c4 -11 -1 -20 -13 -27 -11 -6 -20 -17 -20 -25 0 -9 -6
-12 -16 -8 -8 3 -13 12 -10 19 5 14 -6 19 -17 8 -9 -10 4 -34 19 -34 17 0 19
-27 2 -33 -10 -4 -10 -6 0 -6 7 -1 17 9 22 22 5 12 9 16 9 10 1 -8 14 -12 36
-10 39 2 40 4 20 31 -8 11 -15 28 -15 37 0 10 -5 21 -12 25 -8 5 -9 2 -5 -9z
m13 -48 c10 -17 -13 -36 -27 -22 -12 12 -4 33 11 33 5 0 12 -5 16 -11z"/>
<path d="M6492 2171 c-8 -4 -12 -19 -10 -32 2 -19 9 -24 33 -24 25 0 30 4 30
24 0 13 -7 27 -15 29 -13 4 -13 3 -2 -11 17 -20 8 -37 -19 -37 -22 0 -26 29
-7 48 14 14 9 15 -10 3z"/>
<path d="M6561 2163 c-1 -12 2 -30 6 -40 6 -16 8 -15 14 7 l6 25 11 -25 11
-25 7 22 c3 13 10 20 15 17 5 -3 9 0 9 7 0 6 -8 9 -20 6 -11 -3 -20 -1 -20 5
0 6 -6 8 -14 5 -8 -3 -17 -1 -20 6 -2 7 -5 2 -5 -10z"/>
<path d="M6742 2131 c-16 -51 -15 -54 6 -33 10 9 14 20 10 23 -13 8 2 39 18
39 21 0 30 -30 13 -42 -11 -8 -11 -9 2 -5 14 5 16 0 12 -32 -4 -32 -2 -39 15
-43 14 -4 23 1 31 20 7 13 14 22 17 19 3 -3 1 -15 -6 -26 -11 -22 -6 -41 12
-41 7 0 7 4 -1 13 -12 15 3 37 26 37 16 0 17 -22 1 -38 -9 -9 -9 -12 0 -12 7
0 12 -10 12 -22 0 -21 2 -20 16 7 8 16 22 37 30 46 8 8 14 20 14 25 0 5 -14
-7 -30 -26 -25 -30 -28 -32 -23 -11 4 17 1 28 -12 37 -15 11 -16 16 -5 29 7 8
8 15 2 15 -5 0 -13 -7 -16 -16 -3 -8 -10 -13 -15 -10 -4 3 -16 -3 -26 -14 -27
-30 -34 -25 -32 24 3 78 -51 107 -71 37z"/>
<path d="M8278 2118 c-43 -54 -92 -155 -112 -232 -16 -64 -46 -109 -46 -69 0
11 -7 26 -15 33 -18 15 -44 -2 -82 -51 -14 -19 -23 -26 -19 -16 3 10 6 30 6
43 0 16 17 41 49 72 63 61 93 120 89 175 -2 34 -7 43 -24 45 -11 2 -27 -5 -36
-15 -50 -55 -128 -249 -128 -316 0 -37 -30 -84 -47 -74 -20 12 17 196 43 218
18 15 18 35 0 42 -10 4 -29 -15 -57 -56 -66 -99 -112 -156 -119 -152 -4 2 -3
27 1 55 9 61 70 174 105 197 23 15 26 15 39 -3 10 -14 17 -16 25 -8 14 13 -14
40 -52 49 -23 6 -33 2 -59 -26 -38 -41 -95 -155 -104 -210 -5 -29 -2 -46 9
-64 26 -39 50 -31 91 30 20 30 37 55 39 55 1 0 1 -31 -1 -68 -3 -52 0 -72 11
-81 21 -18 49 -10 61 17 10 23 25 30 25 12 0 -23 19 -6 55 50 44 67 71 87 60
43 -3 -16 -18 -40 -33 -56 -20 -21 -23 -30 -14 -39 9 -9 22 -3 55 30 43 42 63
53 54 29 -5 -14 9 -46 16 -37 2 3 25 33 51 68 27 35 51 61 53 58 3 -3 1 -11
-5 -18 -5 -7 -15 -31 -22 -54 -22 -75 29 -117 67 -54 18 32 28 37 38 20 13
-20 45 -9 71 25 15 20 24 39 20 43 -4 4 -12 -1 -17 -10 -13 -23 -39 -48 -50
-48 -13 0 -11 21 6 50 19 34 18 40 -5 40 -13 0 -25 -12 -34 -35 -17 -40 -53
-82 -62 -72 -4 3 1 28 11 54 27 77 30 103 11 103 -17 0 -35 -16 -79 -70 l-29
-35 7 30 c4 17 29 56 56 87 90 103 134 229 83 236 -16 2 -32 -9 -56 -40z m33
-72 c-18 -34 -43 -75 -56 -91 l-25 -30 7 35 c6 32 33 85 80 157 33 49 28 -3
-6 -71z m-171 23 c0 -43 -73 -159 -100 -159 -11 0 38 128 62 163 21 29 38 28
38 -4z"/>
<path d="M8691 2125 c-42 -48 -79 -123 -111 -223 -20 -64 -32 -88 -53 -100
-34 -21 -41 -13 -41 48 0 34 -4 50 -13 50 -24 0 -34 -36 -23 -86 9 -41 9 -49
-6 -57 -48 -27 -67 -70 -42 -95 9 -9 -101 -12 -495 -12 -500 0 -507 0 -507
-20 0 -20 7 -20 1090 -20 1060 0 1090 -1 1090 -19 0 -10 6 -24 14 -30 11 -9
16 -6 24 19 l11 30 763 2 c670 3 763 5 763 18 0 13 -93 15 -763 18 l-763 2 7
23 c9 30 99 170 124 192 11 10 23 15 27 12 11 -12 -30 -87 -65 -118 -28 -24
-32 -33 -22 -45 11 -12 19 -8 55 25 23 21 52 44 64 50 18 10 21 9 21 -7 0 -24
31 -52 57 -52 20 0 83 55 83 72 0 4 8 8 19 8 14 0 17 -6 14 -23 -3 -14 2 -31
12 -40 27 -28 60 -20 98 22 55 61 132 69 102 11 -20 -39 -19 -86 1 -94 19 -7
86 58 117 112 26 45 5 40 -27 -7 -15 -21 -38 -49 -53 -62 l-25 -24 7 25 c4 14
14 37 21 52 19 37 18 46 -8 50 -17 2 -22 9 -21 26 4 31 -25 29 -37 -3 -15 -41
-36 -31 -32 14 3 31 0 41 -16 50 -25 14 -49 5 -57 -20 -4 -10 -16 -24 -28 -30
-12 -7 -26 -18 -30 -25 -17 -28 -36 -15 -39 27 -4 60 -31 74 -64 35 -32 -36
-103 -96 -115 -96 -5 0 -6 19 -3 43 5 32 2 46 -10 56 -21 18 -41 0 -98 -84
-38 -57 -41 -53 -16 21 11 32 6 64 -11 64 -5 0 -12 -13 -16 -30 -7 -34 -75
-140 -88 -140 -6 0 -6 16 -2 38 20 103 20 96 -9 88 -14 -3 -26 -2 -26 3 0 15
-30 22 -49 11 -25 -13 -51 -71 -51 -114 0 -46 27 -49 63 -6 28 33 40 39 31 15
-4 -8 -3 -26 0 -40 8 -30 49 -35 65 -7 15 25 14 -3 -1 -45 l-12 -33 -80 0 -79
0 23 25 c25 26 21 47 -5 25 -19 -16 -43 -1 -108 67 -50 52 -56 67 -31 81 9 5
45 37 80 72 64 64 82 95 70 126 -5 13 -13 7 -35 -26 -32 -47 -119 -140 -132
-140 -5 0 5 37 21 81 16 45 27 86 24 90 -16 27 -34 -2 -71 -113 -58 -174 -70
-225 -55 -240 17 -17 27 -2 42 67 l12 59 18 -35 c10 -19 40 -59 65 -87 l47
-52 -466 0 -467 0 21 22 c11 13 20 35 20 54 0 23 7 38 23 49 20 14 22 14 25
-2 6 -30 22 -40 33 -21 18 32 91 119 96 115 2 -3 -2 -16 -10 -29 -23 -34 -32
-95 -17 -113 13 -15 50 -21 50 -7 0 4 12 21 26 37 22 27 24 28 19 7 -7 -25 17
-62 40 -62 7 0 31 20 54 45 35 38 40 41 35 20 -9 -36 23 -46 47 -14 l18 24 16
-22 c9 -13 24 -23 35 -23 23 0 118 85 107 96 -5 5 -17 -3 -28 -17 -30 -42 -67
-63 -85 -48 -25 20 -14 43 34 74 64 41 71 83 12 75 -21 -3 -46 -27 -81 -79
-28 -41 -31 -43 -24 -16 3 17 13 37 20 45 33 37 105 154 105 171 0 29 -28 51
-51 39 -29 -16 -47 -49 -85 -156 -38 -107 -91 -184 -126 -184 -14 0 -18 5 -14
16 3 9 6 24 6 35 0 10 6 19 13 19 21 0 69 56 65 77 -2 11 -13 19 -30 21 -28 3
-28 3 -91 -92 -54 -81 -77 -67 -37 23 43 94 7 112 -59 30 -23 -29 -41 -47 -41
-41 0 27 25 70 65 113 53 57 95 137 98 187 3 53 -29 56 -72 7z m54 -12 c-10
-41 -52 -121 -81 -156 -24 -29 -25 -29 -22 -6 5 36 89 189 104 189 3 0 3 -12
-1 -27z m280 -90 c-7 -31 -52 -110 -67 -119 -13 -8 -3 25 27 94 25 55 52 73
40 25z m952 -150 c-7 -41 -20 -59 -36 -49 -16 10 -14 38 5 64 24 34 38 27 31
-15z m168 1 c-14 -75 -78 -150 -99 -116 -2 4 3 25 13 47 11 26 20 35 25 27 12
-19 25 -14 19 9 -7 25 15 69 35 69 11 0 13 -8 7 -36z m-1130 -14 c-16 -17 -33
-30 -39 -30 -5 0 5 16 24 35 18 19 36 32 39 30 2 -3 -8 -19 -24 -35z m-175 7
c0 -8 -9 -22 -20 -32 -22 -20 -27 -7 -10 26 12 22 30 25 30 6z m690 -24 c0
-19 -41 -83 -52 -83 -13 0 -9 22 12 68 19 41 40 49 40 15z m420 -41 c0 -12
-44 -52 -57 -52 -16 0 -17 17 -2 58 10 30 11 31 35 16 13 -9 24 -19 24 -22z
m-1503 -109 c-8 -8 -23 -13 -33 -11 -17 3 -15 7 11 32 26 24 31 25 33 11 2
-10 -3 -24 -11 -32z"/>
<path d="M6296 2092 c6 -36 4 -42 -10 -36 -11 4 -16 1 -16 -10 0 -19 -16 -21
-27 -3 -4 6 -17 19 -28 27 -11 8 -4 -3 14 -23 38 -40 51 -46 51 -21 0 11 6 14
21 9 20 -7 21 -5 14 31 -10 57 -26 79 -19 26z"/>
<path d="M6641 2114 c0 -11 3 -14 6 -6 3 7 2 16 -1 19 -3 4 -6 -2 -5 -13z"/>
<path d="M3671 2094 c-12 -15 -21 -37 -21 -49 0 -15 -16 -35 -47 -59 -25 -20
-50 -36 -55 -36 -14 0 -8 33 17 94 13 33 22 62 19 65 -3 3 -18 -8 -32 -26 -21
-25 -33 -31 -52 -27 -21 5 -34 -3 -71 -43 -24 -26 -54 -61 -67 -77 -12 -16
-24 -27 -27 -24 -2 2 0 31 5 64 12 71 13 124 3 124 -5 -1 -28 -26 -53 -57 -46
-58 -86 -90 -97 -79 -7 6 5 60 22 99 4 9 3 17 -3 17 -5 0 -15 -13 -21 -28 -7
-16 -38 -56 -71 -90 -82 -87 -109 -82 -84 13 20 76 18 82 -19 47 -39 -38 -59
-40 -80 -9 l-15 22 -27 -25 c-15 -14 -38 -45 -51 -70 -27 -50 -24 -24 8 57 26
69 17 92 -12 28 -44 -100 -61 -209 -30 -190 6 4 24 34 41 68 17 34 38 70 47
80 14 16 17 16 33 1 13 -12 28 -15 50 -10 31 6 31 5 25 -25 -3 -17 -1 -39 4
-50 18 -33 55 -23 110 31 39 39 50 45 50 30 0 -15 7 -20 26 -20 18 0 42 17 81
58 53 54 55 55 50 27 -4 -16 -9 -57 -13 -90 -4 -39 -18 -84 -40 -127 -35 -69
-42 -102 -24 -113 17 -11 39 14 51 59 25 91 31 106 60 145 26 37 31 40 49 29
17 -11 25 -7 68 35 l48 47 -4 -39 c-2 -21 1 -42 7 -45 12 -8 45 7 84 40 40 33
47 30 47 -18 0 -34 -7 -49 -30 -72 -38 -37 -46 -64 -26 -84 14 -14 17 -14 35
2 11 10 27 39 36 65 12 37 26 53 69 84 30 20 56 37 58 37 2 0 4 -21 4 -47 -1
-46 0 -48 28 -51 25 -3 39 6 93 63 35 36 61 71 58 76 -4 5 -34 -20 -68 -56
-90 -94 -117 -84 -82 30 17 59 12 68 -18 33 -24 -28 -109 -88 -125 -88 -6 0
-13 27 -17 61 -6 50 -4 63 11 80 9 10 23 19 30 19 7 0 16 5 19 10 14 23 -45 8
-64 -16z m-161 -62 c0 -4 -18 -26 -40 -47 -46 -45 -57 -27 -14 24 24 29 54 41
54 23z m130 -201 c-6 -12 -15 -21 -21 -21 -10 0 -5 13 14 38 15 19 20 7 7 -17z
m-370 -98 c-11 -17 -11 -17 -6 0 3 10 6 24 7 30 0 9 2 9 5 0 3 -7 0 -20 -6
-30z"/>
<path d="M4860 2100 c-11 -11 -23 -34 -27 -51 -6 -30 -75 -99 -100 -99 -16 0
-17 -4 8 66 31 92 32 94 21 94 -6 0 -19 -13 -28 -29 -15 -25 -22 -29 -46 -24
-34 7 -53 -7 -79 -58 -42 -83 -7 -108 55 -39 43 47 50 49 42 13 -3 -16 -2 -34
3 -42 12 -19 44 -6 94 38 l35 31 6 -31 c9 -45 9 -43 -29 -89 -36 -43 -45 -84
-21 -93 23 -9 45 15 64 68 14 39 29 57 68 85 27 19 60 43 74 52 13 10 21 21
17 24 -4 4 -38 -14 -77 -40 -38 -25 -70 -45 -70 -43 0 2 -5 29 -11 61 -9 48
-8 61 6 82 8 13 24 24 35 24 11 0 20 5 20 10 0 17 -39 11 -60 -10z m-170 -68
c0 -12 -60 -82 -70 -82 -12 0 -2 28 22 63 18 25 48 37 48 19z m139 -196 c-11
-24 -29 -36 -29 -18 0 12 31 54 36 49 3 -2 -1 -16 -7 -31z"/>
<path d="M6330 2114 c0 -6 7 -19 15 -30 8 -10 14 -14 14 -9 0 6 -6 19 -14 29
-8 11 -15 15 -15 10z"/>
<path d="M3050 2095 c0 -8 5 -15 10 -15 6 0 10 7 10 15 0 8 -4 15 -10 15 -5 0
-10 -7 -10 -15z"/>
<path d="M3840 2096 c0 -9 7 -16 16 -16 17 0 14 22 -4 28 -7 2 -12 -3 -12 -12z"/>
<path d="M6956 1985 c-19 -29 -7 -75 21 -75 17 1 17 1 1 11 -10 5 -18 17 -18
25 0 21 27 29 47 13 14 -12 16 -12 11 1 -2 8 -15 16 -27 18 -15 2 -21 9 -17
18 8 22 0 17 -18 -11z"/>
<path d="M6130 1978 c0 -10 9 -18 23 -20 14 -2 21 -9 21 -21 -1 -9 3 -17 8
-17 18 0 3 45 -17 49 -11 2 -23 8 -27 15 -5 7 -8 5 -8 -6z"/>
<path d="M6090 1955 c7 -9 15 -13 17 -11 7 7 -7 26 -19 26 -6 0 -6 -6 2 -15z"/>
<path d="M8380 1937 c0 -13 -5 -28 -11 -34 -7 -7 -7 -13 -1 -17 13 -8 55 50
47 64 -12 19 -35 10 -35 -13z"/>
<path d="M7048 1930 c12 -5 22 -17 22 -27 0 -13 -3 -14 -12 -5 -17 17 -58 15
-65 -4 -3 -8 3 -23 15 -34 19 -18 20 -18 48 11 23 24 26 33 18 47 -6 9 -20 18
-30 19 -15 2 -14 1 4 -7z m-3 -39 c3 -5 1 -13 -5 -16 -15 -9 -43 3 -35 15 8
13 32 13 40 1z"/>
<path d="M6054 1896 c-3 -8 -4 -21 -1 -28 3 -7 6 -3 6 10 1 32 27 28 26 -5 0
-40 41 -45 55 -7 6 15 9 28 8 29 -2 2 -22 6 -45 10 -34 5 -44 4 -49 -9z m71
-26 c0 -22 -29 -18 -33 3 -3 14 1 18 15 15 10 -2 18 -10 18 -18z"/>
<path d="M6503 1873 c-138 -3 -143 -4 -158 -27 -15 -22 -15 -28 -1 -61 22 -51
21 -52 -24 -60 -52 -9 -88 -38 -96 -79 -6 -37 9 -76 30 -76 8 0 16 -11 19 -25
4 -23 -1 -28 -44 -47 -53 -22 -70 -52 -52 -91 11 -23 36 -34 267 -114 l129
-44 166 37 c266 58 244 51 225 79 -8 13 -14 34 -12 47 3 19 -5 25 -52 42 -30
11 -57 21 -60 23 -10 9 27 22 82 28 l58 7 0 43 c0 23 3 56 6 72 6 29 3 31 -56
59 l-62 28 6 43 5 42 -60 40 c-56 37 -67 41 -118 39 -31 -1 -120 -4 -198 -5z
m295 -40 c23 -15 42 -30 42 -33 0 -3 -71 -6 -158 -7 -86 -2 -178 -6 -203 -9
-44 -5 -47 -4 -67 28 l-21 33 62 6 c34 3 116 6 182 7 116 2 123 1 163 -25z
m-404 -23 c22 -33 25 -44 16 -61 -9 -16 -14 -18 -25 -9 -27 22 -44 110 -22
110 3 0 16 -18 31 -40z m461 -74 l0 -43 -103 -7 c-57 -4 -155 -4 -218 0 l-114
7 0 27 c0 51 16 54 295 58 l141 2 -1 -44z m-454 -42 l24 -25 257 2 c231 2 282
-1 267 -15 -3 -3 -31 -9 -64 -15 -33 -6 -98 -17 -145 -26 -112 -20 -130 -19
-230 11 -47 14 -110 32 -140 40 -86 23 -89 26 -45 40 22 7 43 13 46 13 3 1 16
-11 30 -25z m17 -58 c60 -19 125 -37 144 -41 34 -6 36 -9 41 -53 3 -26 3 -49
1 -51 -9 -10 -285 69 -336 95 -21 11 -28 22 -28 43 0 15 3 31 7 34 14 14 65 6
171 -27z m546 -48 c-4 -29 -10 -56 -13 -60 -4 -5 -41 -12 -82 -17 -41 -6 -95
-15 -120 -20 -76 -18 -104 -14 -117 14 -18 39 -14 64 11 74 19 8 279 57 315
60 10 1 11 -12 6 -51z m-549 -94 c25 -20 45 -45 45 -55 0 -11 -2 -19 -5 -19
-9 0 -120 72 -142 93 -69 62 25 45 102 -19z m110 -6 l40 -11 -38 -9 c-32 -7
-44 -4 -68 13 -49 35 -39 36 66 7z m-143 -43 c46 -31 94 -58 107 -62 13 -3 83
2 155 12 72 9 142 16 156 14 31 -5 -191 -53 -240 -53 -19 0 -89 21 -155 46
-202 78 -183 67 -161 84 32 23 50 17 138 -41z m445 15 c11 -29 10 -30 -16 -30
-15 0 -92 -9 -171 -20 -125 -17 -146 -18 -158 -6 -28 27 -7 42 74 54 48 6 86
7 101 1 32 -12 76 -12 68 1 -4 6 7 8 27 5 25 -4 28 -3 13 4 -18 8 -17 9 10 13
17 3 32 6 35 7 3 0 11 -12 17 -29z m-488 -50 c68 -28 142 -55 163 -60 33 -9
38 -15 38 -40 0 -17 -4 -30 -10 -30 -12 0 -290 104 -319 119 -27 15 -28 61 -2
61 3 0 62 -23 130 -50z m570 24 c6 -6 -1 -10 -25 -18 -17 -5 -23 -2 -27 15 -5
18 -3 20 21 14 15 -4 29 -9 31 -11z m28 -54 c13 -35 34 -26 -191 -76 -163 -37
-169 -37 -182 -19 -30 40 -16 47 178 86 84 17 155 33 157 35 12 11 28 1 38
-26z"/>
<path d="M6552 1743 c37 -2 100 -2 140 0 40 1 10 3 -67 3 -77 0 -110 -1 -73
-3z"/>
<path d="M6568 1713 c39 -2 105 -2 145 0 39 1 7 3 -73 3 -80 0 -112 -2 -72 -3z"/>
<path d="M6760 1574 l-75 -13 70 6 c39 3 88 8 110 13 l40 8 -35 0 c-19 -1 -69
-6 -110 -14z"/>
<path d="M6793 1546 c-39 -6 -74 -14 -77 -17 -8 -8 123 10 154 21 32 11 14 10
-77 -4z"/>
<path d="M6580 1440 c-27 -6 -29 -8 -10 -8 14 -1 43 3 65 7 33 7 35 9 10 9
-16 -1 -46 -4 -65 -8z"/>
<path d="M6825 1365 c-113 -25 -180 -43 -165 -44 17 -1 243 49 249 55 7 7 -21
3 -84 -11z"/>
<path d="M6608 1313 c6 -2 18 -2 25 0 6 3 1 5 -13 5 -14 0 -19 -2 -12 -5z"/>
<path d="M7063 1824 c-13 -12 -23 -27 -23 -35 0 -8 7 -3 16 9 9 13 21 22 28
19 6 -2 18 4 27 14 16 16 15 17 -5 15 -11 0 -31 -10 -43 -22z"/>
<path d="M6089 1799 c24 -22 45 -38 48 -36 6 7 -65 77 -79 77 -6 0 8 -18 31
-41z"/>
<path d="M6048 1793 c7 -3 16 -2 19 1 4 3 -2 6 -13 5 -11 0 -14 -3 -6 -6z"/>
<path d="M7083 1780 c-13 -5 -23 -12 -23 -16 0 -3 7 -3 16 0 14 5 15 4 5 -8
-19 -23 -10 -60 17 -64 16 -2 25 3 31 20 10 28 4 48 -15 48 -17 0 -18 17 -1
23 6 3 8 5 2 6 -5 0 -20 -4 -32 -9z m35 -52 c-2 -13 -10 -23 -18 -23 -8 0 -16
10 -18 23 -3 17 2 22 18 22 16 0 21 -5 18 -22z"/>
<path d="M6035 1770 c11 -5 29 -8 40 -8 16 0 15 2 -5 8 -34 11 -60 11 -35 0z"/>
<path d="M6007 1730 c-4 -17 -1 -20 31 -19 21 0 30 3 22 6 -8 3 -22 12 -31 20
-14 12 -17 11 -22 -7z"/>
<path d="M5977 1694 c-4 -4 -7 -18 -7 -31 0 -20 5 -23 43 -23 23 0 37 4 31 8
-7 4 -13 16 -15 27 -4 20 -38 32 -52 19z m43 -24 c0 -11 -6 -20 -14 -20 -18 0
-29 16 -21 30 11 18 35 11 35 -10z"/>
<path d="M7095 1680 c-21 -5 -24 -8 -9 -9 11 0 25 -6 32 -13 9 -9 6 -15 -16
-24 -24 -11 -25 -12 -5 -13 12 -1 25 5 30 12 9 14 12 58 3 56 -3 -1 -18 -5
-35 -9z"/>
<path d="M2020 1610 c0 -20 7 -20 1875 -20 1868 0 1875 0 1875 20 0 20 -7 20
-1875 20 -1868 0 -1875 0 -1875 -20z"/>
<path d="M5974 1565 c5 -18 1 -27 -14 -35 -11 -6 -18 -15 -15 -21 4 -5 10 -7
15 -4 5 3 16 -5 24 -17 14 -19 16 -20 22 -4 5 13 13 16 30 12 24 -6 33 7 13
20 -6 3 -8 17 -4 31 5 23 4 25 -18 19 -17 -4 -27 -1 -31 9 -9 26 -29 17 -22
-10z"/>
<path d="M7115 1568 c6 -16 1 -26 -16 -39 l-24 -19 28 0 c21 0 27 -5 27 -22 1
-23 1 -23 16 -3 8 11 24 19 34 17 11 -2 20 2 20 7 0 6 -5 11 -11 11 -7 0 -8
11 -4 30 6 29 5 30 -18 25 -14 -4 -28 -2 -31 4 -13 20 -28 12 -21 -11z"/>
<path d="M7727 1523 c-3 -5 -21 -50 -40 -101 -30 -80 -33 -92 -18 -92 10 0 23
11 29 25 10 21 19 25 52 25 34 0 41 -4 46 -25 4 -16 13 -25 25 -25 10 0 19 1
19 3 0 2 -17 46 -38 98 -35 86 -60 116 -75 92z m39 -91 c6 -30 4 -32 -20 -32
-29 0 -31 4 -15 49 13 37 26 31 35 -17z"/>
<path d="M7910 1431 l0 -101 48 0 c27 0 57 7 70 16 25 17 29 56 7 74 -13 11
-13 14 0 27 37 36 6 72 -68 80 l-57 6 0 -102z m95 39 c0 -20 -6 -26 -28 -28
-18 -2 -29 2 -33 12 -11 28 4 48 33 44 22 -2 28 -8 28 -28z m8 -69 c17 -17 -5
-41 -39 -41 -29 0 -34 3 -34 23 0 13 3 27 7 31 8 8 54 -1 66 -13z"/>
<path d="M8137 1524 c-4 -4 -7 -49 -7 -101 0 -85 2 -93 19 -93 16 0 20 8 23
43 3 42 3 42 43 42 40 0 40 0 43 -42 3 -35 7 -43 23 -43 18 0 20 6 17 97 -3
84 -6 98 -20 101 -15 3 -18 -4 -18 -42 l0 -46 -44 0 -45 0 -3 42 c-3 39 -16
57 -31 42z"/>
<path d="M8390 1430 c0 -82 3 -100 15 -100 12 0 15 18 15 100 0 82 -3 100 -15
100 -12 0 -15 -18 -15 -100z"/>
<path d="M8532 1514 c-14 -9 -22 -26 -22 -43 0 -32 13 -46 53 -56 32 -9 39
-17 31 -40 -6 -14 -15 -16 -45 -11 -42 7 -60 -7 -30 -23 54 -30 115 2 109 56
-2 22 -12 32 -45 47 -24 11 -43 25 -43 32 0 16 27 25 55 18 33 -8 42 14 10 26
-36 14 -47 13 -73 -6z"/>
<path d="M8710 1430 c0 -82 3 -100 15 -100 11 0 15 11 15 39 0 43 7 48 60 47
34 -1 35 -2 36 -41 0 -29 5 -41 17 -43 15 -3 17 8 17 97 0 83 -3 101 -15 101
-10 0 -15 -10 -15 -29 0 -52 -8 -61 -56 -61 l-44 0 0 45 c0 33 -4 45 -15 45
-12 0 -15 -18 -15 -100z"/>
<path d="M8960 1430 l0 -100 60 0 c47 0 60 3 60 15 0 11 -11 15 -40 15 -36 0
-40 3 -40 25 0 21 5 25 30 25 20 0 30 5 30 15 0 10 -10 15 -30 15 -27 0 -30 3
-30 30 0 28 2 30 40 30 29 0 40 4 40 15 0 12 -13 15 -60 15 l-60 0 0 -100z"/>
<path d="M9167 1523 c-4 -3 -7 -48 -7 -100 0 -86 1 -93 20 -93 17 0 20 7 20
39 0 22 4 43 10 46 5 3 24 -14 42 -40 18 -25 40 -45 50 -45 25 0 23 8 -16 59
l-34 45 34 45 c19 24 32 46 30 48 -11 11 -44 -11 -70 -47 -17 -22 -33 -40 -38
-40 -4 0 -8 20 -8 45 0 43 -14 58 -33 38z"/>
<path d="M9500 1430 c0 -82 3 -100 15 -100 11 0 15 11 15 40 0 52 15 52 61 -1
21 -25 42 -40 52 -38 13 3 10 13 -22 54 l-38 50 33 41 c38 46 41 54 20 54 -8
0 -31 -20 -51 -45 -21 -25 -41 -42 -46 -39 -5 3 -9 23 -9 45 0 28 -4 39 -15
39 -12 0 -15 -18 -15 -100z"/>
<path d="M9779 1503 c-40 -105 -59 -157 -59 -164 0 -19 27 -8 38 16 10 21 19
25 52 25 34 0 41 -4 46 -25 4 -16 13 -25 26 -25 23 0 22 1 -25 115 -36 88 -60
106 -78 58z m48 -65 c13 -30 9 -38 -24 -38 -26 0 -27 5 -12 49 12 34 18 32 36
-11z"/>
<path d="M9977 1523 c-4 -3 -7 -48 -7 -100 0 -86 1 -93 20 -93 16 0 20 7 20
35 0 32 3 35 28 35 56 0 91 54 64 97 -16 25 -107 44 -125 26z m88 -58 c0 -25
-4 -30 -27 -33 -26 -3 -28 -1 -28 33 0 34 2 36 28 33 23 -3 27 -8 27 -33z"/>
<path d="M10234 1521 c-45 -19 -68 -92 -48 -146 18 -46 116 -59 158 -20 35 32
37 101 4 140 -25 28 -79 40 -114 26z m63 -27 c13 -4 26 -19 33 -39 20 -61 -17
-105 -76 -91 -47 12 -54 91 -11 121 24 17 24 17 54 9z"/>
<path d="M10495 1519 c-62 -36 -74 -111 -26 -160 49 -49 125 -38 157 23 32 61
-7 134 -77 144 -19 2 -43 -1 -54 -7z m85 -39 c41 -41 14 -120 -40 -120 -39 0
-60 24 -60 70 0 62 58 92 100 50z"/>
<path d="M10715 1518 c-3 -8 -5 -52 -3 -99 3 -70 6 -84 21 -87 14 -3 17 4 17
37 0 23 5 41 10 41 6 0 23 -18 38 -40 15 -21 35 -39 45 -40 22 0 21 9 -3 40
-24 30 -25 44 -5 60 18 15 19 49 1 73 -19 24 -113 36 -121 15z m93 -47 c4 -25
-12 -41 -40 -41 -14 0 -18 8 -18 36 0 33 2 35 28 32 20 -2 28 -9 30 -27z"/>
<path d="M2680 1391 c0 -91 2 -101 18 -101 13 0 18 7 17 23 -3 36 5 47 36 47
33 0 69 34 69 64 -1 39 -25 57 -84 63 l-56 6 0 -102z m95 34 c0 -25 -4 -31
-27 -33 -22 -3 -29 2 -34 22 -8 34 3 48 34 44 23 -2 27 -8 27 -33z"/>
<path d="M2895 1478 c-3 -8 -5 -52 -3 -99 3 -70 6 -84 21 -87 14 -3 17 4 17
37 0 53 18 53 50 1 14 -22 33 -40 42 -40 23 0 23 11 -2 43 -24 30 -25 43 -5
63 19 19 19 58 1 73 -8 6 -37 14 -65 18 -39 4 -52 2 -56 -9z m93 -47 c4 -25
-12 -41 -40 -41 -14 0 -18 8 -18 36 0 33 2 35 28 32 20 -2 28 -9 30 -27z"/>
<path d="M3120 1390 c0 -93 1 -100 20 -100 19 0 20 7 20 100 0 93 -1 100 -20
100 -19 0 -20 -7 -20 -100z"/>
<path d="M3240 1479 c0 -7 14 -34 30 -61 20 -32 30 -61 30 -88 0 -33 3 -40 20
-40 17 0 20 7 20 43 0 30 9 55 30 87 33 50 38 70 15 70 -8 0 -25 -20 -37 -45
-12 -25 -25 -45 -29 -45 -4 0 -12 14 -19 31 -20 47 -60 79 -60 48z"/>
<path d="M3500 1403 c-18 -48 -35 -94 -38 -100 -8 -24 29 -13 40 12 9 21 18
25 55 25 37 0 43 -3 43 -20 0 -20 25 -38 37 -26 3 3 -10 47 -30 98 -48 127
-63 129 -107 11z m63 20 c2 -10 8 -26 12 -35 6 -15 2 -18 -23 -18 -30 0 -30 0
-19 35 11 38 22 45 30 18z"/>
<path d="M3732 1474 c-14 -10 -22 -25 -22 -45 0 -24 7 -32 38 -47 43 -20 52
-30 45 -50 -5 -10 -16 -12 -49 -7 -47 7 -59 -6 -25 -25 52 -27 115 6 109 58
-2 21 -13 31 -46 46 -55 25 -54 52 1 49 26 -2 37 2 37 11 0 28 -54 34 -88 10z"/>
<path d="M3910 1391 c0 -95 1 -101 20 -101 20 0 21 5 18 97 -3 84 -6 98 -20
101 -16 3 -18 -7 -18 -97z"/>
<path d="M4140 1488 c0 -2 -2 -47 -3 -101 l-2 -97 48 0 c58 0 99 19 115 55 36
78 -19 145 -117 145 -23 0 -41 -1 -41 -2z m114 -50 c37 -53 9 -118 -51 -118
l-33 0 0 70 0 70 34 0 c25 0 39 -7 50 -22z"/>
<path d="M4413 1408 c-18 -46 -35 -91 -39 -100 -4 -13 -1 -18 10 -18 9 0 21
11 26 25 8 21 16 25 50 25 33 0 42 -4 52 -25 6 -14 19 -25 29 -25 16 0 16 4
-3 53 -12 28 -29 72 -38 97 -29 73 -49 66 -87 -32z m65 0 c13 -36 14 -35 -15
-40 -24 -3 -25 -1 -17 42 8 38 17 38 32 -2z"/>
<path d="M4642 1474 c-14 -10 -22 -25 -22 -45 0 -24 7 -32 38 -47 43 -20 52
-30 45 -50 -5 -10 -16 -12 -49 -7 -47 7 -59 -6 -25 -25 52 -27 114 3 109 53
-2 27 -10 35 -46 52 -54 25 -54 51 1 48 26 -2 37 2 37 11 0 28 -54 34 -88 10z"/>
<path d="M6025 1408 c-25 -21 -32 -33 -24 -39 6 -4 9 -14 6 -22 -5 -13 4 -17
46 -19 l52 -3 -40 -28 c-35 -25 -37 -27 -13 -21 27 6 28 5 23 -27 -5 -33 -5
-34 6 -6 6 16 18 27 30 27 11 0 22 7 26 17 10 25 -32 53 -80 53 -32 0 -38 3
-29 12 17 17 15 31 -3 24 -25 -9 -17 6 18 35 17 16 29 28 25 29 -4 0 -23 -14
-43 -32z m98 -103 c7 -18 -9 -29 -30 -21 -12 5 -13 9 -3 21 16 19 26 19 33 0z"/>
<path d="M7070 1427 c8 -8 26 -18 40 -22 32 -9 15 7 -25 24 -26 11 -28 11 -15
-2z"/>
<path d="M7051 1374 c-6 -15 -9 -29 -6 -32 3 -3 5 0 5 6 0 18 18 14 52 -9 16
-12 31 -19 34 -16 3 3 -13 15 -35 27 -24 14 -37 28 -34 36 9 25 -4 15 -16 -12z"/>
<path d="M7020 1322 c0 -13 52 -84 57 -78 3 3 1 11 -5 19 -17 20 1 40 29 32
13 -4 21 -4 17 -1 -10 11 -98 36 -98 28z m40 -28 c0 -8 -4 -12 -10 -9 -5 3
-10 10 -10 16 0 5 5 9 10 9 6 0 10 -7 10 -16z"/>
<path d="M6971 1256 c-13 -14 -20 -29 -17 -34 3 -6 -5 -13 -18 -16 -38 -9 -37
-31 2 -67 20 -19 32 -28 26 -21 -8 9 -8 23 0 47 l10 33 27 -19 c26 -18 26 -18
49 6 13 14 18 25 12 25 -6 0 -15 -7 -20 -17 -14 -25 -45 -9 -38 19 3 13 3 17
0 11 -7 -15 -30 -17 -38 -4 -3 5 4 20 15 35 26 33 20 34 -10 2z m-14 -72 c9
-23 -11 -38 -26 -20 -13 16 -7 36 10 36 5 0 12 -7 16 -16z"/>
<path d="M6120 1229 c-19 -16 -29 -29 -23 -29 15 0 70 47 63 53 -3 3 -21 -8
-40 -24z"/>
<path d="M12194 1218 c-22 -24 -61 -81 -88 -128 -27 -47 -59 -101 -71 -120
-56 -90 -58 -96 -16 -50 44 48 95 124 155 230 20 36 44 75 52 88 26 35 10 26
-32 -20z"/>
<path d="M6179 1226 c10 -12 6 -19 -18 -37 -17 -13 -31 -27 -31 -33 0 -5 13 3
29 18 18 18 36 26 45 23 14 -6 14 -4 0 18 -9 14 -21 25 -26 25 -6 0 -6 -6 1
-14z"/>
<path d="M6208 1147 l-28 -42 21 -17 c12 -10 26 -18 31 -18 6 0 0 8 -12 18
-28 22 -19 46 13 36 18 -5 20 -4 10 7 -7 7 -13 19 -13 26 0 18 25 16 40 -2 7
-9 15 -13 18 -10 5 4 -38 44 -48 45 -3 0 -17 -19 -32 -43z"/>
<path d="M6849 1151 l-23 -19 29 -38 c15 -22 30 -40 31 -42 1 -2 14 4 28 14
31 20 28 32 -3 12 -27 -17 -51 3 -32 26 10 12 9 14 -7 9 -20 -5 -44 18 -25 24
19 7 48 32 37 33 -7 0 -22 -8 -35 -19z"/>
<path d="M7550 1070 l0 -70 43 0 c54 0 77 22 77 73 0 44 -28 67 -82 67 l-38 0
0 -70z m88 38 c7 -7 12 -27 12 -45 0 -34 -21 -53 -59 -53 -19 0 -21 6 -21 55
0 54 1 55 28 55 15 0 33 -5 40 -12z"/>
<path d="M7720 1130 c0 -5 5 -10 10 -10 6 0 10 5 10 10 0 6 -4 10 -10 10 -5 0
-10 -4 -10 -10z"/>
<path d="M7910 1130 c0 -5 5 -10 10 -10 6 0 10 5 10 10 0 6 -4 10 -10 10 -5 0
-10 -4 -10 -10z"/>
<path d="M8190 1070 c0 -40 4 -70 10 -70 6 0 10 30 10 70 0 40 -4 70 -10 70
-6 0 -10 -30 -10 -70z"/>
<path d="M8330 1070 c0 -40 4 -70 10 -70 6 0 10 11 10 25 0 19 5 25 23 25 29
0 47 18 47 45 0 30 -19 45 -57 45 l-33 0 0 -70z m65 25 c0 -13 -8 -21 -22 -23
-19 -3 -23 1 -23 23 0 22 4 26 23 23 14 -2 22 -10 22 -23z"/>
<path d="M9340 1070 l0 -70 44 0 c35 0 48 5 60 22 39 56 5 118 -64 118 l-40 0
0 -70z m88 38 c14 -14 16 -57 4 -75 -4 -7 -22 -16 -40 -19 l-32 -6 0 56 c0 55
1 56 28 56 15 0 33 -5 40 -12z"/>
<path d="M9510 1130 c0 -5 5 -10 10 -10 6 0 10 5 10 10 0 6 -4 10 -10 10 -5 0
-10 -4 -10 -10z"/>
<path d="M9700 1130 c0 -5 5 -10 10 -10 6 0 10 5 10 10 0 6 -4 10 -10 10 -5 0
-10 -4 -10 -10z"/>
<path d="M9980 1070 c0 -40 4 -70 10 -70 6 0 10 30 10 70 0 40 -4 70 -10 70
-6 0 -10 -30 -10 -70z"/>
<path d="M10123 1114 c-20 -20 -24 -31 -19 -56 10 -49 24 -59 75 -56 42 3 46
5 49 31 4 30 -21 48 -41 28 -8 -8 -6 -11 7 -11 26 0 15 -34 -12 -38 -49 -7
-79 51 -48 93 10 14 21 17 50 12 36 -6 50 6 20 17 -31 12 -55 6 -81 -20z"/>
<path d="M10400 1070 c0 -40 4 -70 10 -70 6 0 10 30 10 70 0 40 -4 70 -10 70
-6 0 -10 -30 -10 -70z"/>
<path d="M3907 1123 c-4 -3 -7 -17 -7 -30 0 -20 -4 -23 -19 -18 -24 7 -61 -26
-61 -56 0 -42 18 -60 60 -57 l40 3 0 83 c0 82 -1 88 -13 75z m-7 -102 c0 -42
-21 -61 -46 -40 -30 24 -10 79 28 79 14 0 18 -8 18 -39z"/>
<path d="M7988 1113 c-3 -12 -3 -42 -1 -67 5 -39 9 -46 27 -46 19 1 19 2 4 11
-24 14 -25 69 -1 69 15 0 15 1 1 13 -9 6 -18 19 -20 27 -3 10 -6 8 -10 -7z"/>
<path d="M8689 1115 c-3 -11 -3 -41 -1 -67 3 -41 7 -48 26 -48 19 1 19 2 4 11
-24 14 -25 69 -1 69 15 0 15 1 1 13 -9 6 -18 19 -20 27 -3 11 -6 9 -9 -5z"/>
<path d="M9774 1112 c-6 -13 -8 -43 -5 -65 5 -36 10 -42 31 -44 14 -1 18 0 8
3 -13 4 -18 16 -18 39 0 24 5 35 18 38 15 4 15 5 0 6 -9 0 -18 11 -21 24 l-4
22 -9 -23z"/>
<path d="M3230 1040 c0 -47 4 -80 10 -80 6 0 10 16 10 35 0 33 2 35 35 35 19
0 35 5 35 10 0 6 -16 10 -35 10 -32 0 -35 2 -35 29 0 28 3 30 43 34 40 3 40 4
-10 5 l-53 2 0 -80z"/>
<path d="M6774 1107 c-3 -8 4 -32 15 -53 18 -33 21 -35 21 -15 0 15 5 21 13
18 6 -3 21 -8 32 -12 18 -7 18 -6 -2 9 -12 9 -23 26 -25 39 -4 26 -45 37 -54
14z m44 -14 c-2 -10 -10 -18 -18 -18 -8 0 -16 8 -18 18 -2 12 3 17 18 17 15 0
20 -5 18 -17z"/>
<path d="M9213 1060 c0 -36 2 -50 4 -32 2 17 2 47 0 65 -2 17 -4 3 -4 -33z"/>
<path d="M6362 1061 c-15 -47 -15 -62 -1 -38 14 24 26 21 33 -8 4 -14 11 -25
17 -25 8 0 7 5 -1 15 -11 13 -11 20 0 40 16 29 7 55 -18 55 -13 0 -22 -12 -30
-39z m48 14 c0 -15 -26 -32 -36 -23 -2 3 -2 13 2 22 8 20 34 21 34 1z"/>
<path d="M7720 1050 c0 -27 5 -50 10 -50 6 0 10 23 10 50 0 28 -4 50 -10 50
-5 0 -10 -22 -10 -50z"/>
<path d="M7796 1088 c-3 -7 -7 -37 -10 -65 -5 -50 -4 -53 21 -59 30 -8 56 5
61 30 3 11 -6 18 -27 22 -35 7 -42 24 -11 24 27 0 44 42 21 52 -26 11 -51 9
-55 -4z m44 -24 c0 -8 -9 -14 -20 -14 -22 0 -28 26 -7 33 16 6 27 -1 27 -19z
m10 -73 c0 -15 -16 -22 -34 -15 -25 9 -19 24 9 24 14 0 25 -4 25 -9z"/>
<path d="M7910 1050 c0 -27 5 -50 10 -50 6 0 10 23 10 50 0 28 -4 50 -10 50
-5 0 -10 -22 -10 -50z"/>
<path d="M8085 1090 c-4 -6 5 -10 19 -10 36 0 33 -26 -4 -33 -21 -5 -30 -12
-30 -27 0 -17 7 -20 40 -20 40 0 40 0 40 38 0 21 -5 43 -12 50 -15 15 -45 16
-53 2z m45 -65 c0 -8 -9 -15 -20 -15 -11 0 -20 7 -20 15 0 8 9 15 20 15 11 0
20 -7 20 -15z"/>
<path d="M8471 1091 c-11 -7 -7 -10 15 -13 34 -4 35 -21 2 -28 -14 -4 -24 -15
-26 -28 -3 -19 1 -22 31 -22 18 0 36 2 39 5 2 3 2 24 -1 47 -6 45 -29 59 -60
39z m49 -60 c0 -6 -5 -13 -10 -16 -15 -9 -43 3 -35 15 8 13 45 13 45 1z"/>
<path d="M8598 1093 c-14 -3 -18 -15 -18 -49 0 -24 5 -44 10 -44 6 0 10 16 10
36 0 27 5 37 20 41 11 3 20 9 20 14 0 9 -13 10 -42 2z"/>
<path d="M8774 1091 c-8 -9 -4 -91 5 -91 6 0 11 17 13 38 2 30 7 38 26 40 20
3 22 -1 22 -37 0 -23 5 -41 10 -41 14 0 12 76 -2 88 -12 10 -65 12 -74 3z"/>
<path d="M8918 1089 c-18 -10 -23 -44 -12 -73 7 -17 74 -23 74 -7 0 6 -12 9
-27 8 -19 -1 -28 3 -31 16 -3 14 4 17 32 17 29 0 34 3 29 18 -12 31 -35 39
-65 21z m47 -19 c4 -6 -5 -10 -19 -10 -14 0 -26 5 -26 10 0 6 9 10 19 10 11 0
23 -4 26 -10z"/>
<path d="M9031 1045 c1 -27 3 -41 6 -30 2 11 6 30 9 43 3 14 12 22 24 22 11 0
20 4 20 10 0 5 -13 8 -30 7 -29 -2 -30 -3 -29 -52z"/>
<path d="M9513 1050 c0 -30 2 -43 4 -27 2 15 2 39 0 55 -2 15 -4 2 -4 -28z"/>
<path d="M9584 1088 c-5 -7 -9 -38 -9 -68 0 -51 2 -55 25 -58 14 -2 34 4 45
11 16 13 17 17 6 31 -7 9 -24 16 -38 16 -14 0 -21 4 -18 10 3 6 15 10 26 10
26 0 43 42 20 52 -26 11 -48 9 -57 -4z m44 -21 c2 -12 -3 -17 -17 -17 -12 0
-21 6 -21 13 0 31 32 34 38 4z m12 -76 c0 -11 -30 -19 -47 -14 -24 8 -13 23
17 23 17 0 30 -4 30 -9z"/>
<path d="M9700 1051 c0 -28 5 -51 10 -51 6 0 10 20 10 44 0 25 -4 48 -10 51
-6 4 -10 -13 -10 -44z"/>
<path d="M9870 1090 c-12 -8 -9 -10 13 -10 33 0 37 -27 5 -32 -15 -2 -24 -11
-26 -25 -3 -20 1 -23 33 -23 l36 0 -3 48 c-2 38 -7 47 -23 50 -11 1 -27 -2
-35 -8z m44 -65 c-6 -16 -44 -21 -44 -7 0 14 12 22 31 22 12 0 16 -5 13 -15z"/>
<path d="M10281 1086 c-7 -8 -11 -30 -9 -48 3 -28 7 -34 31 -36 35 -4 57 13
57 44 0 44 -53 71 -79 40z m57 -39 c4 -33 -22 -47 -45 -24 -22 21 -8 59 20 55
16 -2 23 -11 25 -31z"/>
<path d="M10483 1092 c-6 -4 -11 -23 -11 -42 -1 -19 -2 -43 -4 -54 -4 -25 23
-40 56 -32 38 9 33 50 -6 54 -32 4 -38 22 -8 22 27 0 44 42 21 52 -22 9 -34 9
-48 0z m47 -22 c0 -14 -20 -22 -37 -16 -12 5 -13 9 -3 21 11 14 40 10 40 -5z
m0 -79 c0 -12 -21 -19 -37 -13 -22 8 -14 22 12 22 14 0 25 -4 25 -9z"/>
<path d="M10605 1090 c-4 -6 5 -10 19 -10 36 0 33 -26 -4 -33 -21 -5 -30 -12
-30 -27 0 -17 6 -20 40 -18 39 1 40 2 40 38 0 20 -5 41 -12 48 -15 15 -45 16
-53 2z m43 -62 c-7 -19 -38 -22 -38 -4 0 10 9 16 21 16 12 0 19 -5 17 -12z"/>
<path d="M10733 1093 c-21 -4 -23 -10 -23 -63 0 -32 5 -62 10 -65 6 -3 10 3
10 14 0 16 6 21 29 21 17 0 31 6 35 16 10 25 7 59 -6 72 -12 12 -16 13 -55 5z
m45 -45 c-2 -25 -8 -33 -23 -33 -20 0 -31 25 -21 51 3 8 15 14 26 14 18 0 21
-5 18 -32z"/>
<path d="M10840 1028 c0 -39 4 -68 10 -68 6 0 10 9 10 20 0 14 7 20 23 20 31
0 47 18 47 51 0 33 -14 44 -57 44 l-33 0 0 -67z m68 20 c-2 -25 -8 -34 -25
-36 -20 -3 -23 1 -23 32 0 32 3 36 26 36 23 0 25 -3 22 -32z"/>
<path d="M10981 1091 c-11 -7 -8 -10 14 -13 38 -4 44 -26 8 -30 -20 -2 -29 -9
-31 -25 -3 -20 1 -23 33 -23 42 0 52 16 38 63 -9 33 -36 45 -62 28z m49 -60
c0 -6 -5 -13 -10 -16 -15 -9 -43 3 -35 15 8 13 45 13 45 1z"/>
<path d="M3392 1064 c-15 -10 -22 -25 -22 -48 0 -39 15 -56 51 -56 55 0 78 61
39 100 -24 24 -38 25 -68 4z m56 -16 c30 -30 -2 -93 -36 -71 -21 13 -27 50
-12 69 15 17 32 18 48 2z"/>
<path d="M3708 1073 c-27 -4 -28 -7 -28 -59 0 -66 18 -72 22 -7 2 37 7 49 22
51 24 5 36 -14 36 -60 0 -21 5 -38 10 -38 16 0 12 73 -6 98 -8 12 -18 21 -22
21 -4 -1 -19 -4 -34 -6z"/>
<path d="M4004 1070 c-52 -21 -32 -110 26 -110 16 0 32 5 36 11 5 8 -1 10 -19
5 -17 -4 -31 -1 -41 10 -23 22 -11 34 35 34 44 0 49 10 19 40 -22 22 -25 23
-56 10z m50 -25 c4 -11 -2 -15 -24 -15 -29 0 -38 9 -23 23 12 12 41 7 47 -8z"/>
<path d="M4161 1071 c-8 -5 -20 -7 -26 -5 -8 4 -12 -12 -14 -51 -1 -32 3 -55
9 -55 5 0 10 11 10 24 0 37 18 76 35 76 8 0 15 5 15 10 0 12 -10 13 -29 1z"/>
<path d="M6446 1064 c-3 -9 -5 -32 -5 -52 1 -24 3 -29 6 -14 3 14 12 22 26 23
l22 0 -23 11 c-32 16 -21 33 18 31 23 -1 29 1 19 8 -22 14 -56 10 -63 -7z"/>
<path d="M3526 1028 c7 -65 9 -68 54 -66 l40 1 0 54 c0 29 -4 53 -10 53 -5 0
-10 -20 -10 -44 0 -31 -5 -46 -16 -50 -26 -10 -34 2 -34 50 0 32 -4 44 -14 44
-12 0 -14 -10 -10 -42z"/>
<path d="M6260 1055 c-8 -9 -8 -15 -2 -15 12 0 26 19 19 26 -2 2 -10 -2 -17
-11z"/>
<path d="M6547 1032 c-19 -42 -23 -67 -6 -39 5 9 19 17 29 17 22 0 23 3 14 38
-9 31 -18 28 -37 -16z m33 -3 c0 -5 -4 -9 -10 -9 -5 0 -10 7 -10 16 0 8 5 12
10 9 6 -3 10 -10 10 -16z"/>
<path d="M6600 1060 c0 -5 5 -10 10 -10 6 0 10 5 10 10 0 6 -4 10 -10 10 -5 0
-10 -4 -10 -10z"/>
<path d="M6670 1055 c7 -8 10 -26 8 -40 -3 -14 -1 -25 3 -25 10 0 12 41 3 64
-3 9 -11 16 -16 16 -6 0 -5 -6 2 -15z"/>
<path d="M11610 1034 c-41 -17 -115 -87 -136 -126 -8 -15 -14 -44 -14 -66 0
-61 75 -122 150 -122 40 0 45 -14 20 -55 -31 -50 -7 -43 32 9 25 33 42 45 68
50 65 11 233 107 216 123 -3 3 -11 1 -18 -5 -20 -16 -134 -52 -166 -52 l-29 0
14 66 c27 133 -40 221 -137 178z m23 -76 c36 -19 65 -146 38 -163 -17 -10 -91
27 -112 56 -11 16 -23 44 -26 62 -9 60 34 79 100 45z"/>
<path d="M1050 1013 c-29 -26 -34 -37 -38 -89 -3 -40 1 -72 11 -97 l16 -37
-52 0 c-60 -1 -49 -13 28 -30 37 -8 62 -23 100 -59 53 -50 108 -83 160 -95 29
-7 29 -7 -10 22 -45 32 -115 107 -115 122 0 5 12 12 28 15 52 12 124 49 143
76 27 38 25 100 -4 127 -34 33 -114 64 -177 69 -53 5 -59 3 -90 -24z m180 -22
c15 -29 12 -93 -6 -119 -17 -25 -90 -66 -103 -58 -14 9 -20 73 -10 110 11 38
60 86 89 86 11 0 24 -9 30 -19z"/>
<path d="M6612 1020 c0 -14 2 -19 5 -12 2 6 2 18 0 25 -3 6 -5 1 -5 -13z"/>
<path d="M6722 990 c0 -14 2 -19 5 -12 2 6 2 18 0 25 -3 6 -5 1 -5 -13z"/>
<path d="M6592 980 c0 -14 2 -19 5 -12 2 6 2 18 0 25 -3 6 -5 1 -5 -13z"/>
<path d="M6468 973 c6 -2 18 -2 25 0 6 3 1 5 -13 5 -14 0 -19 -2 -12 -5z"/>
<path d="M6633 973 c9 -2 23 -2 30 0 6 3 -1 5 -18 5 -16 0 -22 -2 -12 -5z"/>
<path d="M6546 672 c-2 -4 -16 -39 -30 -76 -24 -64 -27 -92 -7 -70 16 18 59
144 51 149 -5 3 -11 2 -14 -3z"/>
<path d="M6827 607 c-30 -79 -32 -87 -18 -87 9 0 61 125 61 148 0 30 -17 6
-43 -61z"/>
<path d="M6038 605 l-3 -65 35 1 c19 0 29 3 23 6 -24 9 -13 29 20 38 64 19 39
85 -33 85 l-38 0 -4 -65z m72 20 c0 -16 -6 -25 -15 -25 -9 0 -15 9 -15 25 0
16 6 25 15 25 9 0 15 -9 15 -25z"/>
<path d="M6160 662 c0 -4 4 -12 9 -17 4 -6 14 -31 21 -57 15 -56 42 -66 57
-21 l10 28 6 -28 c12 -45 44 -36 57 16 6 23 15 52 20 65 8 19 6 22 -11 22 -11
0 -19 -6 -18 -12 1 -7 -1 -31 -6 -53 l-9 -40 -11 45 c-13 54 -45 69 -46 23 0
-15 -4 -37 -9 -48 -6 -16 -9 -8 -15 33 -7 46 -10 52 -31 52 -13 0 -24 -4 -24
-8z"/>
<path d="M6371 649 c6 -12 9 -42 6 -65 -5 -44 -4 -44 27 -43 17 0 25 3 19 6
-24 9 -13 29 20 38 23 7 33 17 35 34 5 33 -21 51 -75 51 -42 0 -43 -1 -32 -21z
m73 -8 c9 -14 -4 -41 -20 -41 -8 0 -14 10 -14 25 0 25 23 35 34 16z"/>
<path d="M6585 605 l0 -65 57 0 c47 0 56 3 52 15 -5 11 1 15 21 15 20 0 26 -4
21 -15 -4 -11 2 -15 24 -15 26 0 29 2 20 18 -5 9 -19 39 -30 65 -11 28 -25 47
-32 45 -7 -3 -22 -29 -34 -59 -16 -38 -27 -54 -40 -54 -15 0 -20 9 -22 37 -2
20 2 46 8 58 10 18 8 20 -17 20 -28 0 -28 -1 -28 -65z m134 -14 c-15 -5 -22 6
-14 19 6 9 10 9 16 -1 5 -8 4 -15 -2 -18z"/>
<path d="M6903 663 c-15 -5 -18 -43 -4 -43 5 0 11 7 15 15 8 21 26 19 26 -3 0
-10 -13 -31 -30 -47 -16 -16 -30 -32 -30 -37 0 -4 23 -8 50 -8 45 0 50 2 50
22 0 17 -3 19 -12 10 -7 -7 -18 -12 -26 -12 -9 0 -5 10 12 31 30 36 31 42 10
63 -15 16 -37 19 -61 9z"/>
<path d="M7022 654 c-38 -26 -26 -101 19 -117 41 -14 80 53 58 96 -21 40 -42
46 -77 21z m46 -52 c2 -31 -1 -42 -11 -42 -18 0 -29 37 -20 68 9 36 28 20 31
-26z"/>
<path d="M7133 663 c-18 -7 -16 -43 2 -43 8 0 15 7 15 16 0 9 5 14 12 12 22
-8 19 -26 -11 -61 -17 -19 -31 -37 -31 -41 0 -3 23 -6 50 -6 43 0 50 3 50 20
0 11 -4 20 -10 20 -5 0 -10 -4 -10 -10 0 -5 -8 -10 -17 -10 -14 0 -13 3 5 23
48 51 10 107 -55 80z"/>
<path d="M7263 657 c-23 -10 -31 -27 -13 -27 15 0 12 -77 -2 -83 -7 -3 7 -5
32 -5 25 0 39 2 33 5 -8 3 -13 25 -13 58 0 60 -5 67 -37 52z"/>
<path d="M11552 588 c-46 -29 -132 -34 -226 -13 -137 31 -258 3 -351 -79 l-50
-45 51 25 c84 41 169 51 256 31 142 -33 230 -17 314 58 54 49 55 53 6 23z"/>
<path d="M1405 568 c17 -5 82 -11 145 -14 63 -2 148 -6 188 -8 40 -2 70 -1 67
2 -2 3 -35 11 -72 18 -81 16 -375 18 -328 2z"/>
</g>
</svg>
